<svg xmlns="http://www.w3.org/2000/svg" xmlns:xlink="http://www.w3.org/1999/xlink" width="200" zoomAndPan="magnify" viewBox="0 0 150 165.000002" height="220" preserveAspectRatio="xMidYMid meet" version="1.0"><defs><clipPath id="f350908795"><path d="M 28 123 L 118 123 L 118 138.96875 L 28 138.96875 Z M 28 123 " clip-rule="nonzero"/></clipPath><clipPath id="c0a6754049"><path d="M 18.824219 61 L 71 61 L 71 128 L 18.824219 128 Z M 18.824219 61 " clip-rule="nonzero"/></clipPath><clipPath id="fa82e4ab41"><path d="M 80 87 L 131.390625 87 L 131.390625 127 L 80 127 Z M 80 87 " clip-rule="nonzero"/></clipPath></defs><g clip-path="url(#f350908795)"><path fill="#848587" d="M 117.246094 128.195312 C 117.085938 127.832031 116.871094 127.507812 116.597656 127.222656 L 114.847656 125.171875 C 114.265625 124.488281 113.671875 123.804688 112.960938 123.425781 C 112.25 123.042969 111.222656 122.992188 110.324219 123.019531 C 107.941406 123.070312 105.515625 123.121094 103.195312 123.910156 C 101.8125 124.382812 100.480469 125.105469 99.097656 125.515625 C 97.332031 126.039062 95.511719 126.066406 93.707031 126.078125 C 87.117188 126.144531 80.511719 126.210938 73.921875 126.238281 C 70.96875 126.25 67.992188 126.25 65.089844 125.476562 C 61.71875 124.566406 58.394531 122.597656 54.96875 123.121094 L 54.96875 123.359375 C 50.898438 124.921875 46.496094 123.6875 42.34375 124.855469 C 41.105469 125.210938 39.902344 125.765625 38.664062 126.027344 C 35.582031 126.65625 32.0625 125.539062 29.609375 128.140625 C 28.621094 129.195312 27.988281 131.375 28.910156 132.53125 C 29.359375 133.097656 30.007812 133.203125 30.597656 133.292969 L 56.289062 136.894531 C 63.152344 137.851562 70.046875 138.824219 76.953125 138.902344 C 82.554688 138.96875 88.144531 138.457031 93.71875 137.957031 C 95.984375 137.746094 98.253906 137.539062 100.46875 136.90625 C 102.417969 136.339844 104.328125 135.433594 106.304688 135.054688 C 109.929688 134.34375 114.226562 135.066406 116.652344 131.335938 C 117.230469 130.46875 117.640625 129.207031 117.246094 128.195312 Z M 117.246094 128.195312 " fill-opacity="1" fill-rule="nonzero"/></g><path fill="#f0efef" d="M 55.0625 129.285156 C 52.070312 129.273438 48.984375 128.96875 46.402344 127.773438 C 39.125 124.382812 32.800781 114.265625 32.8125 106.433594 C 32.8125 100.234375 35.082031 94.28125 37.308594 88.484375 L 44.664062 69.378906 C 45.941406 66.066406 47.246094 62.691406 49.566406 60.011719 C 52.648438 56.4375 56.839844 54.726562 61.480469 54.992188 C 66.121094 55.253906 70.707031 56.949219 74.355469 53.308594 C 76.78125 50.902344 78.019531 48.238281 81.84375 47.710938 C 85.058594 47.265625 88.367188 48.878906 90.621094 51.101562 C 96.699219 57.039062 98.171875 65.988281 101.035156 73.753906 C 104.195312 82.347656 112.394531 88.394531 114.121094 97.484375 C 115.03125 102.214844 114.175781 107.339844 112.460938 111.597656 C 111.273438 114.542969 109.667969 116.882812 108.046875 119.351562 C 106.660156 121.453125 106.042969 123.949219 104.765625 126.09375 C 101.480469 131.558594 96.539062 130.902344 91.964844 131.242188 C 86.339844 131.675781 80.695312 131.480469 75.082031 131.058594 C 70.101562 130.679688 65.171875 128.96875 60.1875 129.140625 C 58.59375 129.207031 56.839844 129.296875 55.0625 129.285156 Z M 55.0625 129.285156 " fill-opacity="1" fill-rule="nonzero"/><path fill="#98aa97" d="M 50.6875 104.253906 L 50.527344 103.621094 C 51.160156 101.652344 50.449219 99.550781 50.289062 97.484375 C 50 93.621094 51.832031 89.65625 54.96875 87.382812 C 56.65625 86.160156 58.832031 85.398438 60.835938 85.960938 C 61.058594 86.027344 61.296875 86.121094 61.375 86.332031 C 61.421875 86.492188 61.417969 86.65625 61.363281 86.816406 L 59.398438 94.804688 C 59.121094 95.9375 58.84375 97.078125 58.371094 98.144531 C 57.011719 101.257812 54.019531 103.582031 50.6875 104.253906 Z M 50.6875 104.253906 " fill-opacity="1" fill-rule="nonzero"/><path fill="#98aa97" d="M 39.496094 101.429688 C 42.804688 101.574219 46.152344 102.585938 48.667969 104.726562 L 48.484375 105.210938 C 46.703125 105.796875 45.015625 106.585938 43.421875 107.578125 C 42.394531 108.222656 41.394531 108.957031 40.285156 109.457031 C 36.765625 111.035156 32.5625 110.0625 29.28125 108.039062 C 29.121094 107.945312 28.964844 107.828125 28.910156 107.65625 C 28.894531 107.546875 28.902344 107.433594 28.9375 107.328125 C 29.480469 105.210938 31.140625 103.492188 33.101562 102.53125 C 35.066406 101.574219 37.308594 101.335938 39.496094 101.429688 Z M 39.496094 101.429688 " fill-opacity="1" fill-rule="nonzero"/><g clip-path="url(#c0a6754049)"><path fill="#98aa97" d="M 20.582031 65.882812 C 20.839844 65.785156 21.101562 65.753906 21.371094 65.792969 C 25.617188 66.066406 29.542969 68.472656 32.246094 71.757812 C 34.699219 74.742188 36.226562 78.378906 37.1875 82.125 C 37.558594 81.875 38.097656 81.890625 38.363281 82.386719 L 38.429688 82.519531 C 38.203125 81.988281 38.039062 81.433594 37.941406 80.863281 C 37.570312 79.117188 37.203125 77.355469 37.164062 75.566406 C 37.003906 69.640625 40.746094 63.808594 46.203125 61.457031 C 46.796875 61.207031 47.46875 60.984375 48.074219 61.179688 C 49.300781 61.585938 49.433594 63.230469 49.355469 64.503906 C 49.234375 66.277344 49.105469 68.078125 48.511719 69.761719 C 47.773438 71.851562 46.375 73.625 45.003906 75.359375 L 38.851562 83.136719 L 38.625 82.875 L 38.546875 82.742188 C 40.367188 86.25 42.199219 89.757812 44.082031 93.242188 L 44.492188 92.242188 C 45.714844 90.363281 44.6875 87.933594 44.398438 85.710938 C 44.3125 85.050781 44.300781 84.382812 44.355469 83.71875 C 44.414062 83.050781 44.539062 82.398438 44.738281 81.761719 C 44.933594 81.121094 45.195312 80.511719 45.523438 79.925781 C 45.851562 79.34375 46.238281 78.800781 46.683594 78.300781 C 47.128906 77.800781 47.621094 77.351562 48.160156 76.957031 C 48.703125 76.558594 49.277344 76.226562 49.890625 75.953125 C 50.503906 75.679688 51.136719 75.472656 51.792969 75.335938 C 52.449219 75.199219 53.113281 75.132812 53.78125 75.132812 C 54.308594 77.972656 53.492188 80.917969 52.097656 83.4375 C 50.699219 85.960938 48.75 88.128906 46.8125 90.273438 L 44.082031 93.28125 C 46.21875 97.210938 48.417969 101.113281 50.765625 104.921875 C 52.675781 108.011719 54.796875 110.953125 56.933594 113.898438 L 56.839844 113.453125 C 56.71875 111.542969 56.882812 109.65625 57.34375 107.796875 C 57.800781 105.941406 58.53125 104.191406 59.53125 102.558594 C 60.675781 100.679688 62.203125 98.984375 64.15625 97.945312 C 65.148438 97.421875 66.203125 97.082031 67.320312 96.929688 C 68.433594 96.78125 69.542969 96.824219 70.640625 97.066406 C 70.640625 100.257812 69.296875 103.292969 67.714844 106.066406 C 66.921875 107.460938 66.027344 108.839844 64.789062 109.863281 C 64.089844 110.441406 63.285156 110.890625 62.496094 111.324219 L 57.210938 114.265625 C 59.953125 118.0625 62.691406 121.875 64.933594 125.960938 C 65.460938 126.90625 63.984375 127.75 63.457031 126.789062 C 60.992188 122.292969 57.933594 118.15625 54.929688 113.976562 C 49.15625 115.75 44.832031 120.457031 40.828125 124.976562 C 40.894531 123.4375 39.667969 122.148438 39.285156 120.652344 C 38.96875 119.390625 39.296875 118.050781 39.890625 116.894531 C 40.640625 115.421875 41.894531 114.160156 43.476562 113.660156 C 44.4375 113.347656 45.480469 113.347656 46.496094 113.332031 L 52.121094 113.28125 C 52.964844 113.269531 53.835938 113.28125 54.625 113.542969 C 52.78125 110.980469 50.960938 108.40625 49.300781 105.726562 C 46.730469 101.558594 44.332031 97.300781 42.027344 92.992188 L 42 93.308594 C 40.589844 93.6875 39.296875 94.386719 37.941406 94.910156 C 32.601562 97 26.261719 96.355469 21.464844 93.230469 C 21.253906 93.113281 21.085938 92.949219 20.964844 92.742188 C 20.882812 92.542969 20.867188 92.335938 20.910156 92.125 C 21.058594 91.164062 21.78125 90.363281 22.625 89.878906 C 23.46875 89.390625 24.445312 89.179688 25.40625 88.984375 C 27.964844 88.433594 30.613281 87.878906 33.167969 88.457031 C 34.15625 88.683594 35.09375 89.0625 36.03125 89.46875 C 37.960938 90.324219 39.847656 91.269531 41.683594 92.308594 C 40.113281 89.367188 38.574219 86.410156 37.03125 83.453125 C 32.074219 82.980469 27.777344 79.929688 23.824219 76.894531 C 21.4375 75.132812 18.84375 72.820312 18.910156 69.8125 C 18.933594 68.667969 19.355469 67.554688 19.949219 66.566406 C 20.109375 66.292969 20.292969 66.015625 20.582031 65.882812 Z M 20.582031 65.882812 " fill-opacity="1" fill-rule="nonzero"/></g><path fill="#adcbaa" d="M 58.59375 87.945312 C 58.746094 87.832031 58.90625 87.734375 59.082031 87.65625 C 59.253906 87.589844 59.433594 87.542969 59.621094 87.527344 C 58.898438 87.734375 58.449219 88.339844 58.144531 88.972656 C 57.988281 89.292969 57.851562 89.621094 57.738281 89.957031 C 57.605469 90.296875 57.488281 90.640625 57.367188 90.980469 C 56.90625 92.347656 56.5 93.742188 56.050781 95.132812 C 55.601562 96.527344 55.0625 97.90625 54.351562 99.195312 C 53.636719 100.480469 52.742188 101.703125 51.609375 102.625 C 52.535156 101.503906 53.292969 100.28125 53.886719 98.957031 C 54.476562 97.636719 54.984375 96.289062 55.417969 94.910156 C 55.878906 93.53125 56.3125 92.136719 56.894531 90.785156 C 57.167969 90.097656 57.496094 89.433594 57.882812 88.800781 C 58.078125 88.480469 58.3125 88.195312 58.59375 87.945312 Z M 58.59375 87.945312 " fill-opacity="1" fill-rule="nonzero"/><path fill="#adcbaa" d="M 46.824219 88.15625 C 47.207031 86.777344 47.507812 85.359375 47.96875 83.953125 C 48.210938 83.25 48.5 82.574219 48.839844 81.914062 C 49.183594 81.261719 49.582031 80.640625 50.027344 80.050781 C 50.910156 78.859375 51.972656 77.855469 53.214844 77.039062 C 52.171875 78.039062 51.253906 79.144531 50.460938 80.351562 C 49.679688 81.546875 49.066406 82.820312 48.617188 84.175781 C 48.15625 85.527344 47.824219 86.933594 47.324219 88.3125 C 46.824219 89.695312 46.164062 91.0625 45.085938 92.074219 C 45.941406 90.875 46.441406 89.535156 46.824219 88.15625 Z M 46.824219 88.15625 " fill-opacity="1" fill-rule="nonzero"/><path fill="#adcbaa" d="M 41.828125 72.125 C 42.496094 70.566406 43.304688 69.082031 44.253906 67.671875 C 45.203125 66.253906 46.332031 64.996094 47.640625 63.898438 C 46.546875 65.167969 45.574219 66.523438 44.714844 67.960938 C 43.867188 69.390625 43.117188 70.871094 42.460938 72.402344 C 41.789062 73.925781 41.210938 75.488281 40.628906 77.066406 C 40.050781 78.644531 39.523438 80.234375 38.914062 81.796875 C 39.25 80.148438 39.652344 78.515625 40.128906 76.894531 C 40.597656 75.269531 41.164062 73.679688 41.828125 72.125 Z M 41.828125 72.125 " fill-opacity="1" fill-rule="nonzero"/><path fill="#adcbaa" d="M 25.605469 71.730469 C 26.960938 72.847656 28.265625 74.019531 29.542969 75.214844 C 30.824219 76.410156 32.0625 77.65625 33.25 78.945312 C 34.433594 80.234375 35.59375 81.546875 36.675781 82.925781 C 35.398438 81.730469 34.132812 80.523438 32.878906 79.3125 C 31.628906 78.105469 30.363281 76.894531 29.082031 75.710938 C 27.804688 74.53125 26.539062 73.335938 25.261719 72.140625 C 23.984375 70.941406 22.691406 69.773438 21.425781 68.566406 C 22.863281 69.535156 24.257812 70.613281 25.605469 71.730469 Z M 25.605469 71.730469 " fill-opacity="1" fill-rule="nonzero"/><path fill="#adcbaa" d="M 32.050781 91.824219 C 32.832031 91.71875 33.617188 91.671875 34.40625 91.679688 C 35.195312 91.691406 35.976562 91.761719 36.753906 91.886719 C 38.3125 92.140625 39.789062 92.636719 41.183594 93.375 C 39.714844 92.894531 38.210938 92.574219 36.675781 92.414062 C 35.152344 92.257812 33.632812 92.285156 32.113281 92.492188 C 31.351562 92.585938 30.585938 92.714844 29.808594 92.796875 C 29.019531 92.882812 28.226562 92.886719 27.4375 92.808594 C 25.855469 92.636719 24.363281 92.136719 22.914062 91.574219 C 24.445312 91.863281 25.960938 92.230469 27.476562 92.28125 C 28.992188 92.335938 30.492188 92.03125 32.050781 91.824219 Z M 32.050781 91.824219 " fill-opacity="1" fill-rule="nonzero"/><path fill="#adcbaa" d="M 34.261719 105.160156 C 35.59375 104.820312 36.925781 104.53125 38.296875 104.292969 C 39.667969 104.054688 41.050781 103.9375 42.433594 104.003906 C 43.835938 104.03125 45.1875 104.300781 46.496094 104.804688 C 45.152344 104.566406 43.796875 104.472656 42.433594 104.53125 C 41.761719 104.554688 41.089844 104.609375 40.417969 104.6875 C 39.746094 104.765625 39.074219 104.859375 38.402344 104.964844 C 37.058594 105.171875 35.726562 105.4375 34.382812 105.671875 C 33.039062 105.910156 31.71875 106.199219 30.585938 106.988281 C 31.074219 106.476562 31.640625 106.082031 32.285156 105.804688 C 32.925781 105.535156 33.585938 105.320312 34.261719 105.160156 Z M 34.261719 105.160156 " fill-opacity="1" fill-rule="nonzero"/><path fill="#adcbaa" d="M 41.855469 119.207031 L 42.15625 118.8125 C 42.574219 118.292969 43.03125 117.8125 43.527344 117.367188 C 44.03125 116.929688 44.5625 116.53125 45.125 116.171875 C 46.253906 115.457031 47.472656 114.9375 48.773438 114.621094 C 50.070312 114.300781 51.378906 114.222656 52.703125 114.382812 C 51.414062 114.488281 50.152344 114.738281 48.917969 115.132812 C 48.617188 115.226562 48.328125 115.355469 48.023438 115.449219 C 47.71875 115.539062 47.429688 115.683594 47.152344 115.828125 C 46.875 115.972656 46.574219 116.09375 46.308594 116.261719 L 45.886719 116.5 L 45.492188 116.75 C 44.410156 117.425781 43.433594 118.230469 42.566406 119.167969 L 42.238281 119.507812 L 41.933594 119.878906 C 41.722656 120.117188 41.53125 120.371094 41.355469 120.640625 C 41.011719 121.164062 40.734375 121.757812 40.773438 122.414062 C 40.578125 121.769531 40.773438 121.074219 41.0625 120.480469 C 41.210938 120.183594 41.378906 119.902344 41.566406 119.628906 Z M 41.855469 119.207031 " fill-opacity="1" fill-rule="nonzero"/><path fill="#adcbaa" d="M 59.066406 110.3125 C 59.753906 109.101562 60.371094 107.839844 61.046875 106.605469 C 61.386719 105.988281 61.757812 105.382812 62.152344 104.777344 C 62.546875 104.175781 62.984375 103.621094 63.445312 103.082031 C 64.359375 102 65.335938 100.980469 66.382812 100.023438 C 65.554688 101.164062 64.683594 102.269531 63.867188 103.398438 C 63.046875 104.53125 62.304688 105.707031 61.636719 106.933594 C 60.953125 108.15625 60.308594 109.40625 59.515625 110.585938 C 58.726562 111.769531 57.804688 112.898438 56.65625 113.726562 C 57.59375 112.683594 58.398438 111.542969 59.066406 110.3125 Z M 59.066406 110.3125 " fill-opacity="1" fill-rule="nonzero"/><g clip-path="url(#fa82e4ab41)"><path fill="#98aa97" d="M 109.296875 96.578125 C 109.613281 95.976562 110.417969 96.039062 110.722656 96.433594 L 111.855469 95.398438 C 113.515625 93.359375 115.1875 91.296875 117.3125 89.746094 C 119.433594 88.195312 122.070312 87.171875 124.679688 87.527344 C 127.289062 87.878906 129.34375 89.378906 131.375 90.863281 C 129.792969 92.480469 129.132812 94.804688 127.65625 96.527344 C 125.640625 98.878906 122.304688 99.773438 119.222656 99.535156 C 116.136719 99.300781 113.503906 98.183594 110.839844 96.921875 C 110.824219 96.996094 110.796875 97.066406 110.761719 97.132812 C 109.191406 100.140625 107.175781 102.875 104.976562 105.460938 C 107.566406 105.171875 110.167969 104.921875 112.777344 104.714844 C 113.6875 104.632812 114.621094 104.570312 115.53125 104.6875 C 118.417969 105.082031 120.75 107.40625 121.859375 110.085938 C 122.015625 110.46875 122.148438 110.875 122.054688 111.269531 C 121.898438 111.902344 121.226562 112.230469 120.621094 112.480469 C 119.660156 112.875 118.691406 113.242188 117.707031 113.582031 C 115.492188 114.359375 113.027344 115.015625 110.851562 114.148438 C 109.113281 113.464844 107.875 111.925781 106.726562 110.457031 L 103.839844 106.761719 C 101.941406 108.90625 99.953125 110.953125 98.003906 113.019531 C 96.984375 114.085938 95.953125 115.148438 94.917969 116.199219 C 96.445312 115.355469 98.082031 114.726562 99.808594 114.699219 C 102.179688 114.660156 104.472656 115.816406 106.132812 117.511719 C 107.796875 119.207031 108.847656 121.414062 109.496094 123.6875 C 106.28125 124.609375 102.574219 124.671875 99.792969 122.792969 C 98.976562 122.242188 98.277344 121.546875 97.542969 120.902344 C 96.210938 119.734375 94.773438 118.71875 93.230469 117.851562 C 89.6875 121.230469 85.902344 124.34375 81.644531 126.855469 C 80.777344 127.367188 80.144531 125.933594 81.011719 125.433594 C 86.929688 121.941406 91.925781 117.195312 96.632812 112.242188 C 101.335938 107.289062 106.1875 102.546875 109.296875 96.578125 Z M 109.296875 96.578125 " fill-opacity="1" fill-rule="nonzero"/></g><path fill="#98aa97" d="M 111.578125 74.542969 C 111.867188 74.453125 112.171875 74.359375 112.472656 74.425781 C 112.777344 74.492188 112.976562 74.675781 113.1875 74.871094 C 114.148438 75.710938 115.125 76.582031 115.691406 77.722656 C 116.386719 79.128906 116.363281 80.796875 115.953125 82.308594 C 115.546875 83.820312 114.78125 85.214844 114.03125 86.578125 C 112.804688 88.8125 111.578125 91.074219 110.917969 93.53125 C 110.5625 94.859375 110.339844 96.289062 109.417969 97.300781 L 109.457031 96.972656 C 108.582031 95.734375 107.84375 94.417969 107.242188 93.023438 C 106.644531 91.632812 106.191406 90.191406 105.890625 88.707031 C 105.589844 87.21875 105.445312 85.71875 105.460938 84.203125 C 105.472656 82.6875 105.640625 81.1875 105.964844 79.707031 C 106.160156 78.8125 106.4375 77.921875 106.964844 77.171875 C 107.992188 75.710938 109.851562 75.082031 111.578125 74.542969 Z M 111.578125 74.542969 " fill-opacity="1" fill-rule="nonzero"/><path fill="#98aa97" d="M 98.199219 89.261719 C 99.820312 90.324219 100.953125 92.058594 101.640625 93.886719 C 102.324219 95.710938 102.628906 97.671875 102.917969 99.601562 L 103.695312 104.792969 C 103.75 105.132812 103.539062 105.644531 103.261719 105.4375 L 102.90625 105.515625 C 99.992188 103.597656 97.121094 101.558594 94.8125 98.917969 C 92.507812 96.277344 90.78125 92.964844 90.582031 89.484375 C 90.554688 89.089844 90.554688 88.667969 90.738281 88.3125 C 91.214844 87.382812 92.519531 87.472656 93.546875 87.683594 C 95.15625 87.984375 96.816406 88.339844 98.199219 89.261719 Z M 98.199219 89.261719 " fill-opacity="1" fill-rule="nonzero"/><path fill="#98aa97" d="M 90.1875 104.59375 C 91.292969 106.460938 92.28125 108.433594 92.71875 110.546875 C 93.152344 112.664062 93.007812 114.976562 91.953125 116.867188 L 91.769531 117.066406 C 85.929688 113.003906 82.359375 105.882812 82.632812 98.785156 C 84.585938 99.535156 86.589844 100.335938 88.089844 101.78125 C 88.933594 102.585938 89.582031 103.582031 90.1875 104.59375 Z M 90.1875 104.59375 " fill-opacity="1" fill-rule="nonzero"/><path fill="#adcbaa" d="M 97.699219 117.917969 C 98.898438 118.234375 100.085938 118.589844 101.257812 119.011719 C 102.4375 119.433594 103.570312 119.957031 104.660156 120.574219 C 105.75 121.195312 106.734375 121.957031 107.609375 122.859375 C 106.59375 122.164062 105.53125 121.546875 104.421875 121.007812 C 103.3125 120.480469 102.179688 120.023438 101.035156 119.601562 C 99.886719 119.179688 98.714844 118.785156 97.542969 118.378906 C 96.367188 117.972656 95.234375 117.484375 93.996094 117.433594 C 94.621094 117.335938 95.246094 117.347656 95.867188 117.472656 C 96.5 117.605469 97.105469 117.761719 97.699219 117.917969 Z M 97.699219 117.917969 " fill-opacity="1" fill-rule="nonzero"/><path fill="#adcbaa" d="M 89.238281 108.773438 C 89.660156 109.902344 90.027344 111.046875 90.398438 112.175781 C 90.765625 113.308594 91.148438 114.4375 91.558594 115.566406 C 90.921875 114.535156 90.382812 113.460938 89.9375 112.335938 C 89.476562 111.230469 89.078125 110.101562 88.65625 108.984375 C 88.234375 107.867188 87.800781 106.761719 87.3125 105.6875 C 86.816406 104.601562 86.230469 103.5625 85.558594 102.570312 C 86.4375 103.421875 87.167969 104.386719 87.75 105.460938 C 88.328125 106.527344 88.824219 107.632812 89.238281 108.773438 Z M 89.238281 108.773438 " fill-opacity="1" fill-rule="nonzero"/><path fill="#adcbaa" d="M 105.144531 106.25 C 106.542969 106.449219 107.941406 106.265625 109.375 106.617188 C 109.730469 106.707031 110.074219 106.832031 110.40625 106.988281 L 111.355469 107.472656 C 111.972656 107.828125 112.566406 108.207031 113.160156 108.578125 C 114.332031 109.339844 115.492188 110.085938 116.769531 110.574219 C 118.050781 111.058594 119.445312 111.296875 120.816406 110.953125 C 120.492188 111.101562 120.152344 111.210938 119.800781 111.285156 C 119.449219 111.351562 119.09375 111.386719 118.734375 111.386719 C 118.011719 111.378906 117.304688 111.265625 116.613281 111.046875 C 115.230469 110.625 114.003906 109.863281 112.816406 109.117188 C 112.238281 108.734375 111.644531 108.351562 111.050781 108 L 110.15625 107.484375 C 109.855469 107.332031 109.550781 107.199219 109.230469 107.089844 C 107.953125 106.671875 106.492188 106.699219 105.144531 106.25 Z M 105.144531 106.25 " fill-opacity="1" fill-rule="nonzero"/><path fill="#adcbaa" d="M 115.863281 97.277344 C 115.007812 97.28125 114.160156 97.222656 113.316406 97.105469 C 112.890625 97.042969 112.480469 96.933594 112.078125 96.777344 C 111.671875 96.617188 111.324219 96.371094 111.039062 96.039062 C 111.683594 96.59375 112.539062 96.75 113.355469 96.804688 C 114.1875 96.84375 115.019531 96.839844 115.847656 96.789062 C 117.511719 96.683594 119.140625 96.394531 120.738281 95.921875 C 121.535156 95.691406 122.3125 95.410156 123.070312 95.082031 C 123.453125 94.925781 123.835938 94.753906 124.203125 94.554688 L 124.480469 94.410156 L 124.730469 94.265625 L 125.234375 93.910156 C 125.890625 93.414062 126.523438 92.847656 127.195312 92.335938 C 127.535156 92.078125 127.886719 91.84375 128.25 91.625 C 128.617188 91.394531 129.019531 91.257812 129.449219 91.207031 C 129.042969 91.320312 128.671875 91.507812 128.34375 91.769531 C 128.011719 92.019531 127.695312 92.296875 127.378906 92.570312 C 126.761719 93.136719 126.167969 93.726562 125.523438 94.28125 L 125.007812 94.6875 L 124.71875 94.871094 L 124.441406 95.027344 C 124.074219 95.238281 123.691406 95.421875 123.296875 95.605469 C 120.929688 96.683594 118.449219 97.230469 115.847656 97.25 Z M 115.863281 97.277344 " fill-opacity="1" fill-rule="nonzero"/><path fill="#adcbaa" d="M 110.390625 79.890625 C 110.261719 80.691406 110.128906 81.535156 110.0625 82.335938 C 109.976562 83.144531 109.996094 83.949219 110.128906 84.753906 C 110.246094 85.554688 110.457031 86.371094 110.589844 87.210938 C 110.710938 88.058594 110.742188 88.90625 110.679688 89.757812 C 110.570312 91.46875 110.097656 93.074219 109.257812 94.570312 C 109.855469 93.011719 110.164062 91.398438 110.195312 89.734375 C 110.203125 88.917969 110.136719 88.105469 109.996094 87.300781 C 109.851562 86.5 109.640625 85.699219 109.507812 84.84375 C 109.375 83.988281 109.363281 83.128906 109.46875 82.269531 C 109.523438 81.847656 109.585938 81.429688 109.652344 81.023438 C 109.71875 80.613281 109.796875 80.195312 109.902344 79.785156 C 110.300781 78.15625 110.828125 76.582031 111.261719 74.964844 C 111.089844 76.632812 110.695312 78.261719 110.390625 79.890625 Z M 110.390625 79.890625 " fill-opacity="1" fill-rule="nonzero"/><path fill="#adcbaa" d="M 96.605469 94.359375 C 97.105469 94.832031 97.644531 95.265625 98.1875 95.726562 C 98.746094 96.191406 99.253906 96.714844 99.703125 97.289062 C 100.136719 97.867188 100.511719 98.480469 100.824219 99.128906 C 101.457031 100.417969 101.863281 101.769531 102.207031 103.136719 C 101.613281 101.847656 101.074219 100.546875 100.386719 99.351562 C 100.050781 98.75 99.667969 98.183594 99.242188 97.644531 C 98.808594 97.113281 98.324219 96.632812 97.792969 96.199219 C 97.265625 95.75 96.710938 95.277344 96.210938 94.78125 C 95.703125 94.277344 95.226562 93.753906 94.773438 93.203125 C 93.882812 92.101562 93.066406 90.949219 92.320312 89.746094 C 93.285156 90.785156 94.191406 91.863281 95.140625 92.875 C 95.617188 93.386719 96.089844 93.898438 96.605469 94.359375 Z M 96.605469 94.359375 " fill-opacity="1" fill-rule="nonzero"/><path fill="#7d553c" d="M 82.527344 93.558594 C 81.683594 91.691406 79.15625 88.867188 80.25 86.578125 C 80.339844 86.371094 80.472656 86.1875 80.550781 85.976562 C 80.921875 84.976562 80.300781 84.410156 79.261719 84.109375 C 79.367188 83.886719 79.285156 83.609375 79.3125 83.359375 C 79.351562 82.886719 79.722656 82.453125 79.601562 81.992188 C 79.484375 81.535156 79.234375 81.457031 79.15625 81.140625 C 79.074219 80.824219 79.207031 80.507812 79.246094 80.179688 C 79.28125 79.945312 79.226562 79.734375 79.074219 79.550781 C 78.960938 79.429688 78.917969 79.292969 78.945312 79.128906 C 78.980469 78.757812 78.851562 78.457031 78.5625 78.222656 C 78.207031 77.933594 77.730469 77.855469 77.28125 77.816406 C 76.625 77.761719 75.953125 77.761719 75.292969 77.761719 L 68.953125 77.816406 C 68.546875 77.796875 68.144531 77.84375 67.753906 77.960938 C 67.371094 78.089844 67.015625 78.378906 66.921875 78.773438 C 66.832031 79.167969 67.027344 79.746094 66.738281 80.113281 C 66.640625 80.21875 66.535156 80.3125 66.421875 80.402344 C 66.292969 80.539062 66.210938 80.699219 66.175781 80.882812 C 66.140625 81.066406 66.164062 81.242188 66.238281 81.414062 C 66.421875 81.808594 66.898438 82.164062 66.699219 82.558594 C 66.632812 82.703125 66.476562 82.796875 66.382812 82.914062 C 66.105469 83.242188 66.226562 83.636719 66.460938 83.953125 L 66.566406 84.058594 L 66.460938 84.082031 C 66.066406 84.1875 65.644531 84.371094 65.433594 84.753906 C 65.222656 85.132812 65.132812 86.066406 65.367188 86.476562 C 65.605469 86.882812 65.894531 86.921875 66.039062 87.25 C 66.097656 87.40625 66.128906 87.570312 66.132812 87.734375 L 66.171875 88.511719 C 66.195312 88.726562 66.183594 88.941406 66.132812 89.15625 C 65.871094 90.035156 64.800781 90.71875 64.207031 91.296875 C 61.902344 93.542969 61.703125 97.195312 61.71875 100.5625 L 83.6875 100.5625 C 83.6875 98.15625 83.503906 95.726562 82.527344 93.558594 Z M 82.527344 93.558594 " fill-opacity="1" fill-rule="nonzero"/><path fill="#7d553c" d="M 62.019531 127.578125 C 61.96875 128.800781 61.96875 130.21875 62.835938 130.96875 C 63.273438 131.335938 63.828125 131.453125 64.367188 131.546875 C 69.796875 132.464844 75.332031 132.375 80.789062 131.730469 C 81.382812 131.664062 82.015625 131.570312 82.515625 131.21875 C 83.675781 130.390625 83.753906 128.5625 83.648438 127.039062 C 83.597656 126.210938 83.558594 125.394531 83.515625 124.566406 L 62.113281 124.566406 C 62.09375 125.566406 62.066406 126.570312 62.019531 127.578125 Z M 62.019531 127.578125 " fill-opacity="1" fill-rule="nonzero"/><path fill="#dccabc" d="M 83.664062 102.714844 C 83.675781 102.007812 83.6875 101.285156 83.6875 100.5625 L 61.691406 100.5625 C 61.691406 101.519531 61.71875 102.464844 61.703125 103.332031 C 61.625 110.402344 62.203125 117.472656 62.101562 124.542969 L 83.515625 124.542969 C 83.1875 117.273438 83.53125 109.996094 83.664062 102.714844 Z M 83.664062 102.714844 " fill-opacity="1" fill-rule="nonzero"/><path fill="#31221b" d="M 65.972656 86.765625 C 68.253906 86.25 70.585938 86.25 72.90625 86.289062 C 74.015625 86.304688 75.121094 86.332031 76.230469 86.304688 C 77.335938 86.277344 78.546875 86.066406 79.667969 86.5 C 79.839844 86.566406 79.917969 86.289062 79.746094 86.226562 C 78.679688 85.816406 77.597656 85.960938 76.480469 86.015625 C 75.359375 86.066406 74.09375 86.027344 72.90625 86.015625 C 70.5625 85.988281 68.203125 85.988281 65.894531 86.5 C 65.710938 86.539062 65.789062 86.828125 65.972656 86.777344 Z M 65.972656 86.765625 " fill-opacity="1" fill-rule="nonzero"/><path fill="#31221b" d="M 65.699219 90.234375 C 67.503906 91.679688 70.007812 91.507812 72.183594 91.507812 C 74.898438 91.507812 77.652344 91.21875 80.117188 90.007812 C 80.289062 89.929688 80.144531 89.679688 79.972656 89.757812 C 77.625 90.917969 74.988281 91.207031 72.40625 91.21875 C 70.269531 91.230469 67.675781 91.441406 65.910156 90.035156 C 65.765625 89.917969 65.554688 90.128906 65.699219 90.246094 Z M 65.699219 90.234375 " fill-opacity="1" fill-rule="nonzero"/><path fill="#31221b" d="M 63.933594 129.585938 C 66.964844 129.875 70.058594 129.730469 73.105469 129.757812 C 76.148438 129.785156 78.945312 129.980469 81.804688 129.496094 C 81.988281 129.46875 81.910156 129.179688 81.726562 129.21875 C 78.8125 129.71875 75.792969 129.496094 72.855469 129.46875 C 69.914062 129.441406 66.882812 129.585938 63.945312 129.296875 C 63.761719 129.285156 63.761719 129.574219 63.945312 129.585938 Z M 63.933594 129.585938 " fill-opacity="1" fill-rule="nonzero"/><path fill="#e6e7e8" d="M 79.734375 91.929688 C 81.222656 93.503906 81.960938 95.804688 82.253906 97.90625 C 82.277344 98.089844 82.554688 98.011719 82.527344 97.828125 C 82.226562 95.671875 81.460938 93.332031 79.933594 91.71875 C 79.800781 91.585938 79.601562 91.785156 79.722656 91.929688 Z M 79.734375 91.929688 " fill-opacity="1" fill-rule="nonzero"/><path fill="#e6e7e8" d="M 82.371094 99.285156 L 82.371094 99.902344 C 82.371094 100 82.417969 100.046875 82.515625 100.046875 C 82.613281 100.046875 82.660156 100 82.660156 99.902344 L 82.660156 99.285156 C 82.660156 99.191406 82.613281 99.140625 82.515625 99.140625 C 82.417969 99.140625 82.371094 99.191406 82.371094 99.285156 Z M 82.371094 99.285156 " fill-opacity="1" fill-rule="nonzero"/><path fill="#e6e7e8" d="M 79.050781 89.46875 C 78.863281 89.15625 78.929688 88.601562 78.917969 88.25 L 78.863281 87.039062 C 78.851562 86.855469 78.5625 86.855469 78.574219 87.039062 L 78.640625 88.617188 C 78.652344 88.945312 78.628906 89.3125 78.800781 89.613281 C 78.847656 89.691406 78.914062 89.707031 78.992188 89.660156 C 79.070312 89.613281 79.089844 89.550781 79.050781 89.46875 Z M 79.050781 89.46875 " fill-opacity="1" fill-rule="nonzero"/><path fill="#e6e7e8" d="M 79.351562 85.804688 C 79.53125 85.695312 79.65625 85.542969 79.726562 85.34375 C 79.792969 85.148438 79.792969 84.949219 79.722656 84.753906 C 79.65625 84.582031 79.378906 84.648438 79.445312 84.832031 C 79.5 84.964844 79.503906 85.101562 79.457031 85.238281 C 79.414062 85.371094 79.328125 85.480469 79.207031 85.554688 C 79.050781 85.648438 79.195312 85.898438 79.351562 85.804688 Z M 79.351562 85.804688 " fill-opacity="1" fill-rule="nonzero"/><path fill="#e6e7e8" d="M 82.632812 128.167969 C 82.589844 129.070312 82.226562 129.824219 81.554688 130.429688 C 81.410156 130.558594 81.621094 130.757812 81.765625 130.640625 C 82.492188 129.976562 82.878906 129.152344 82.925781 128.167969 C 82.9375 127.984375 82.648438 127.984375 82.632812 128.167969 Z M 82.632812 128.167969 " fill-opacity="1" fill-rule="nonzero"/><path fill="#31221b" d="M 67.554688 80.0625 C 69.191406 79.496094 70.917969 79.339844 72.628906 79.300781 C 74.34375 79.261719 76.125 79.246094 77.863281 79.222656 C 77.960938 79.222656 78.007812 79.171875 78.007812 79.078125 C 78.007812 78.980469 77.960938 78.933594 77.863281 78.933594 C 76.042969 78.957031 74.210938 78.957031 72.394531 79.023438 C 70.574219 79.089844 69.058594 79.246094 67.476562 79.800781 C 67.304688 79.863281 67.371094 80.140625 67.554688 80.074219 Z M 67.554688 80.0625 " fill-opacity="1" fill-rule="nonzero"/><path fill="#31221b" d="M 67.003906 81.496094 C 70.71875 80.46875 74.59375 80.507812 78.429688 80.5625 C 78.527344 80.5625 78.574219 80.511719 78.574219 80.417969 C 78.574219 80.320312 78.527344 80.273438 78.429688 80.273438 C 74.566406 80.207031 70.667969 80.167969 66.921875 81.207031 C 66.84375 81.238281 66.816406 81.296875 66.839844 81.378906 C 66.863281 81.460938 66.917969 81.496094 67.003906 81.480469 Z M 67.003906 81.496094 " fill-opacity="1" fill-rule="nonzero"/><path fill="#31221b" d="M 67.410156 82.519531 C 71.167969 81.808594 75.003906 81.703125 78.824219 81.785156 C 78.921875 81.785156 78.96875 81.734375 78.96875 81.640625 C 78.96875 81.542969 78.921875 81.496094 78.824219 81.496094 C 74.976562 81.414062 71.128906 81.535156 67.332031 82.242188 C 67.148438 82.28125 67.226562 82.558594 67.410156 82.519531 Z M 67.410156 82.519531 " fill-opacity="1" fill-rule="nonzero"/><path fill="#31221b" d="M 67.070312 83.792969 C 70.8125 82.941406 74.777344 83.085938 78.601562 82.914062 C 78.785156 82.902344 78.785156 82.613281 78.601562 82.625 C 74.753906 82.796875 70.773438 82.652344 67.003906 83.503906 C 66.816406 83.542969 66.898438 83.832031 67.082031 83.78125 Z M 67.070312 83.792969 " fill-opacity="1" fill-rule="nonzero"/><path fill="#31221b" d="M 68.835938 84.214844 C 70.390625 83.992188 71.972656 83.964844 73.539062 83.992188 L 75.726562 84.042969 C 76.53125 84.058594 77.347656 83.953125 78.152344 84.109375 C 78.335938 84.148438 78.417969 83.871094 78.230469 83.832031 C 77.480469 83.675781 76.742188 83.769531 75.992188 83.753906 C 75.238281 83.742188 74.355469 83.703125 73.554688 83.6875 C 71.953125 83.636719 70.355469 83.714844 68.769531 83.925781 C 68.585938 83.953125 68.664062 84.226562 68.847656 84.203125 Z M 68.835938 84.214844 " fill-opacity="1" fill-rule="nonzero"/><path fill="#cacaca" d="M 107.980469 41.246094 C 106.914062 42.0625 81.644531 62.664062 80.539062 63.441406 C 79.746094 63.992188 78.996094 63.859375 78.113281 64.148438 C 77.507812 64.355469 76.984375 64.683594 76.535156 65.140625 C 76.089844 65.597656 75.773438 66.128906 75.582031 66.738281 C 75.554688 66.890625 75.492188 67.023438 75.398438 67.144531 C 75.175781 67.367188 74.820312 67.289062 74.554688 67.160156 C 73.621094 66.714844 72.917969 66.039062 72.445312 65.121094 C 72.0625 64.371094 72.671875 63.691406 73.449219 63.386719 C 74.226562 63.085938 74.765625 63.03125 75.226562 62.558594 C 75.6875 62.085938 75.742188 61.535156 75.953125 61.007812 C 76.480469 59.707031 77.597656 58.75 78.707031 57.882812 C 80.0625 56.804688 81.410156 55.714844 82.765625 54.621094 C 85.429688 52.46875 88.078125 50.300781 90.714844 48.117188 C 93.269531 46.003906 101.679688 39.183594 104.382812 36.960938 Z M 107.980469 41.246094 " fill-opacity="1" fill-rule="nonzero"/><path fill="#dcc3a5" d="M 75.070312 66.765625 L 74.882812 66.710938 L 74.804688 66.75 Z M 75.070312 66.765625 " fill-opacity="1" fill-rule="nonzero"/><path fill="#dcc3a5" d="M 77.796875 60.550781 C 77.046875 60.285156 76.835938 61.023438 76.519531 61.519531 C 76.203125 62.019531 75.871094 62.664062 75.4375 63.046875 C 74.792969 63.636719 74.054688 63.914062 73.289062 64.332031 C 73.148438 64.402344 73.03125 64.5 72.933594 64.621094 C 72.695312 64.964844 72.921875 65.359375 73.15625 65.632812 C 73.394531 65.910156 73.960938 66.421875 74.460938 66.59375 C 75.265625 66.871094 75.570312 65.503906 75.847656 64.949219 C 76.558594 63.585938 79.707031 63.730469 78.90625 61.707031 C 78.777344 61.402344 78.59375 61.140625 78.351562 60.917969 C 78.191406 60.753906 78.007812 60.632812 77.796875 60.550781 Z M 77.796875 60.550781 " fill-opacity="1" fill-rule="nonzero"/><path fill="#e6e7e8" d="M 75.914062 64.898438 C 76.515625 64.195312 77.261719 63.707031 78.152344 63.441406 C 78.8125 63.242188 79.457031 63.136719 80.011719 62.691406 C 80.15625 62.574219 79.945312 62.363281 79.800781 62.480469 C 79.128906 63.019531 78.230469 63.03125 77.453125 63.375 C 76.773438 63.683594 76.1875 64.121094 75.703125 64.6875 C 75.582031 64.832031 75.78125 65.03125 75.914062 64.898438 Z M 75.914062 64.898438 " fill-opacity="1" fill-rule="nonzero"/><path fill="#e6e7e8" d="M 74.859375 65.476562 C 74.761719 65.695312 74.613281 65.867188 74.410156 65.988281 C 74.25 66.09375 74.398438 66.34375 74.554688 66.238281 C 74.824219 66.070312 75.015625 65.835938 75.136719 65.542969 C 75.199219 65.371094 74.925781 65.292969 74.859375 65.464844 Z M 74.859375 65.476562 " fill-opacity="1" fill-rule="nonzero"/><path fill="#e6e7e8" d="M 106.582031 41.152344 C 99.582031 46.855469 92.519531 52.46875 85.519531 58.15625 C 84.070312 59.328125 82.632812 60.496094 81.199219 61.679688 C 81.050781 61.796875 81.261719 62.007812 81.410156 61.890625 C 88.378906 56.09375 95.5 50.46875 102.5625 44.78125 L 106.792969 41.351562 C 106.9375 41.234375 106.726562 41.023438 106.582031 41.140625 Z M 106.582031 41.152344 " fill-opacity="1" fill-rule="nonzero"/><path fill="#101010" d="M 111.472656 44.871094 C 110.828125 44.78125 109.46875 43.058594 109.140625 42.71875 C 108.230469 41.785156 107.375 40.8125 106.542969 39.8125 C 104.933594 37.882812 103.457031 35.84375 101.96875 33.820312 C 101.835938 33.636719 101.707031 33.441406 101.71875 33.203125 C 101.730469 32.96875 102.023438 32.625 102.285156 32.402344 L 108.203125 27.421875 C 108.664062 27.042969 109.125 26.648438 109.667969 26.425781 C 110.207031 26.199219 110.851562 26.148438 111.300781 26.4375 C 111.550781 26.59375 111.800781 26.871094 112.105469 26.738281 C 112.410156 26.609375 112.304688 26.582031 112.421875 26.527344 C 112.539062 26.476562 112.921875 26.542969 113.160156 26.609375 C 114.09375 26.871094 115.109375 26.121094 115.914062 25.453125 C 117.335938 24.242188 118.746094 22.96875 120.210938 21.796875 C 122.082031 20.261719 124.308594 18.945312 126.511719 19.761719 C 128.011719 20.3125 129.238281 22.007812 129.292969 23.636719 C 129.359375 25.753906 127.527344 26.910156 125.96875 28.183594 C 124.414062 29.460938 123.03125 30.65625 121.621094 31.957031 C 121.265625 32.285156 120.910156 32.613281 120.683594 33.035156 C 120.210938 33.886719 120.34375 34.953125 119.722656 35.714844 C 119.652344 35.78125 119.601562 35.859375 119.566406 35.949219 C 119.546875 36.058594 119.5625 36.160156 119.617188 36.253906 C 119.84375 36.738281 120.078125 37.289062 119.855469 37.828125 C 119.734375 38.085938 119.570312 38.316406 119.367188 38.511719 C 118.167969 39.816406 116.898438 41.046875 115.558594 42.207031 C 114.886719 42.785156 112.5 45.265625 111.605469 44.871094 Z M 111.472656 44.871094 " fill-opacity="1" fill-rule="nonzero"/><path fill="#e6e7e8" d="M 112.421875 27.421875 C 113.6875 28.539062 114.609375 29.957031 115.691406 31.246094 C 116.769531 32.535156 118.15625 33.453125 118.722656 35.019531 C 118.789062 35.1875 119.0625 35.121094 119 34.9375 C 118.457031 33.441406 117.179688 32.480469 116.136719 31.339844 C 115.097656 30.195312 113.988281 28.421875 112.617188 27.210938 C 112.472656 27.09375 112.277344 27.292969 112.410156 27.421875 Z M 112.421875 27.421875 " fill-opacity="1" fill-rule="nonzero"/><path fill="#e6e7e8" d="M 118.113281 37.25 C 117.613281 38.578125 116.574219 39.539062 115.503906 40.417969 C 114.4375 41.296875 113.132812 42.363281 111.945312 43.335938 C 111.800781 43.453125 112.011719 43.664062 112.15625 43.546875 C 113.449219 42.480469 114.78125 41.441406 116.046875 40.351562 C 117.035156 39.5 117.929688 38.566406 118.40625 37.332031 C 118.472656 37.160156 118.195312 37.082031 118.128906 37.25 Z M 118.113281 37.25 " fill-opacity="1" fill-rule="nonzero"/><path fill="#e6e7e8" d="M 128.066406 23.480469 C 128.144531 24.820312 127.128906 25.703125 126.179688 26.464844 C 126.035156 26.582031 126.246094 26.792969 126.390625 26.671875 C 127.421875 25.859375 128.460938 24.898438 128.371094 23.480469 C 128.355469 23.296875 128.066406 23.296875 128.078125 23.480469 Z M 128.066406 23.480469 " fill-opacity="1" fill-rule="nonzero"/><path fill="#dcc3a5" d="M 74.804688 71.351562 C 74.503906 70.351562 74.015625 69.433594 73.511719 68.523438 L 72.828125 67.25 L 72.828125 67.367188 C 72.300781 69.207031 71.195312 70.824219 70.757812 72.703125 C 70.621094 73.25 70.582031 73.800781 70.640625 74.359375 C 70.699219 74.925781 70.921875 75.417969 71.3125 75.832031 C 71.5625 76.0625 71.847656 76.234375 72.167969 76.34375 C 72.464844 76.46875 72.773438 76.503906 73.09375 76.449219 C 73.351562 76.375 73.578125 76.25 73.777344 76.066406 C 74.28125 75.632812 74.636719 75.097656 74.84375 74.464844 C 75.1875 73.464844 75.109375 72.363281 74.804688 71.351562 Z M 74.804688 71.351562 " fill-opacity="1" fill-rule="nonzero"/><path fill="#e6e7e8" d="M 74.382812 73.214844 C 74.292969 73.019531 74.105469 72.820312 73.910156 72.863281 L 73.84375 72.886719 C 73.824219 72.917969 73.8125 72.953125 73.816406 72.992188 C 73.796875 73.542969 73.601562 74.023438 73.238281 74.4375 L 73.15625 74.636719 C 73.125 74.667969 73.113281 74.707031 73.117188 74.753906 C 73.121094 74.800781 73.144531 74.835938 73.183594 74.859375 C 73.253906 74.898438 73.328125 74.910156 73.40625 74.898438 C 73.625 74.910156 73.828125 74.855469 74.015625 74.742188 C 74.125 74.644531 74.210938 74.53125 74.277344 74.398438 C 74.375 74.242188 74.445312 74.078125 74.488281 73.898438 C 74.527344 73.660156 74.492188 73.433594 74.382812 73.214844 Z M 74.382812 73.214844 " fill-opacity="1" fill-rule="nonzero"/></svg>