<svg xmlns="http://www.w3.org/2000/svg" xmlns:xlink="http://www.w3.org/1999/xlink" width="200" zoomAndPan="magnify" viewBox="0 0 150 165.000002" height="220" preserveAspectRatio="xMidYMid meet" version="1.0"><defs><clipPath id="9812f1523e"><path d="M 37 47.078125 L 107 47.078125 L 107 114 L 37 114 Z M 37 47.078125 " clip-rule="nonzero"/></clipPath><clipPath id="c642e14786"><path d="M 13.859375 80 L 58 80 L 58 107 L 13.859375 107 Z M 13.859375 80 " clip-rule="nonzero"/></clipPath><clipPath id="0672135d2c"><path d="M 88 72 L 136.117188 72 L 136.117188 109 L 88 109 Z M 88 72 " clip-rule="nonzero"/></clipPath></defs><g clip-path="url(#9812f1523e)"><path fill="#ffedde" d="M 103.984375 77.554688 C 104.347656 75.816406 104.726562 74.066406 104.816406 72.328125 C 105.0625 67.703125 103.265625 63.132812 100.46875 59.433594 C 97.667969 55.738281 93.945312 52.878906 90.011719 50.445312 C 87.398438 48.839844 84.558594 47.378906 81.5 47.234375 C 78.046875 47.078125 74.769531 48.617188 71.65625 50.121094 C 68.542969 51.621094 65.339844 53.191406 63.0625 55.789062 C 60.304688 58.925781 59.132812 63.277344 56.164062 66.214844 C 53.636719 68.710938 50.136719 69.875 46.972656 71.480469 C 40.304688 74.863281 35.070312 85.105469 38.964844 92.304688 C 40.890625 95.871094 44.992188 98.3125 45.617188 102.324219 C 46.035156 105.003906 45.316406 108.453125 47.414062 110.566406 C 50.566406 113.730469 60.148438 113.296875 64.261719 113.574219 C 70.992188 114.03125 77.773438 114.042969 84.492188 113.453125 C 91.574219 112.828125 98.683594 109.785156 103.097656 103.90625 C 105.859375 100.234375 107.148438 95.257812 105.675781 90.90625 C 105.078125 89.15625 104.074219 87.546875 103.59375 85.757812 C 102.875 83.054688 103.410156 80.3125 103.984375 77.554688 Z M 103.984375 77.554688 " fill-opacity="1" fill-rule="nonzero"/></g><g clip-path="url(#c642e14786)"><path fill="#98aa97" d="M 31.6875 85.417969 C 31.359375 84.988281 30.761719 85.144531 30.566406 85.496094 L 29.566406 84.84375 C 28.027344 83.472656 26.464844 82.101562 24.628906 81.160156 C 22.792969 80.21875 20.632812 79.789062 18.667969 80.402344 C 16.703125 81.015625 15.320312 82.429688 13.941406 83.851562 C 15.359375 84.910156 16.179688 86.621094 17.535156 87.757812 C 19.398438 89.3125 22.078125 89.585938 24.421875 89 C 26.765625 88.410156 28.652344 87.210938 30.542969 85.890625 C 30.558594 85.945312 30.585938 85.996094 30.621094 86.046875 C 32.21875 88.175781 34.121094 90.042969 36.152344 91.769531 C 34.113281 91.882812 32.078125 92.019531 30.046875 92.1875 C 29.332031 92.25 28.613281 92.316406 27.925781 92.527344 C 25.75 93.207031 24.253906 95.308594 23.746094 97.53125 C 23.679688 97.84375 23.628906 98.183594 23.746094 98.46875 C 23.863281 98.757812 24.511719 99.109375 25.007812 99.226562 C 25.796875 99.410156 26.59375 99.570312 27.390625 99.710938 C 29.1875 100.023438 31.179688 100.222656 32.742188 99.265625 C 33.992188 98.507812 34.746094 97.164062 35.449219 95.871094 L 37.195312 92.644531 C 38.925781 94.054688 40.734375 95.398438 42.492188 96.734375 C 43.414062 97.429688 44.339844 98.117188 45.277344 98.796875 C 43.988281 98.339844 42.660156 98.066406 41.320312 98.261719 C 39.484375 98.535156 37.871094 99.722656 36.816406 101.253906 C 35.761719 102.78125 35.226562 104.625 35.03125 106.480469 C 37.636719 106.777344 40.488281 106.347656 42.390625 104.53125 C 42.949219 103.996094 43.402344 103.371094 43.886719 102.769531 C 44.761719 101.691406 45.734375 100.714844 46.816406 99.84375 C 49.980469 102.011719 53.300781 103.929688 56.90625 105.316406 C 57.632812 105.601562 57.945312 104.414062 57.21875 104.128906 C 52.207031 102.179688 47.753906 99.148438 43.480469 95.921875 C 39.210938 92.695312 34.851562 89.640625 31.6875 85.417969 Z M 31.6875 85.417969 " fill-opacity="1" fill-rule="nonzero"/></g><path fill="#98aa97" d="M 27.558594 68.199219 C 27.324219 68.144531 27.089844 68.15625 26.855469 68.226562 C 26.65625 68.328125 26.492188 68.472656 26.363281 68.660156 C 25.738281 69.429688 25.085938 70.238281 24.800781 71.191406 C 24.449219 72.367188 24.683594 73.660156 25.191406 74.785156 C 25.699219 75.910156 26.464844 76.886719 27.222656 77.855469 C 28.457031 79.421875 29.695312 81.03125 30.515625 82.847656 C 30.957031 83.824219 31.308594 84.910156 32.15625 85.574219 L 32.089844 85.328125 C 32.601562 84.253906 33 83.136719 33.28125 81.980469 C 33.566406 80.824219 33.726562 79.648438 33.765625 78.457031 C 33.804688 77.269531 33.722656 76.085938 33.515625 74.914062 C 33.308594 73.738281 32.988281 72.597656 32.546875 71.492188 C 32.273438 70.828125 31.960938 70.160156 31.453125 69.652344 C 30.476562 68.644531 28.953125 68.398438 27.558594 68.199219 Z M 27.558594 68.199219 " fill-opacity="1" fill-rule="nonzero"/><path fill="#98aa97" d="M 39.304688 78.261719 C 38.195312 79.265625 37.558594 80.730469 37.273438 82.21875 C 36.984375 83.707031 37.011719 85.222656 37.050781 86.738281 L 37.140625 90.789062 C 37.140625 91.050781 37.375 91.414062 37.558594 91.234375 L 37.84375 91.234375 C 39.824219 89.417969 41.765625 87.496094 43.195312 85.199219 C 44.628906 82.898438 45.511719 80.15625 45.199219 77.476562 C 45.160156 77.164062 45.109375 76.847656 44.925781 76.601562 C 44.445312 75.949219 43.441406 76.171875 42.6875 76.457031 C 41.476562 76.914062 40.253906 77.386719 39.304688 78.261719 Z M 39.304688 78.261719 " fill-opacity="1" fill-rule="nonzero"/><path fill="#98aa97" d="M 47.441406 89.167969 C 46.828125 90.75 46.320312 92.410156 46.253906 94.105469 C 46.191406 95.804688 46.605469 97.570312 47.660156 98.902344 L 47.832031 99.019531 C 51.816406 95.113281 53.636719 89.128906 52.503906 83.667969 C 51.097656 84.503906 49.652344 85.378906 48.691406 86.699219 C 48.144531 87.457031 47.777344 88.304688 47.441406 89.167969 Z M 47.441406 89.167969 " fill-opacity="1" fill-rule="nonzero"/><path fill="#d2dfce" d="M 43.378906 100.46875 C 42.492188 100.859375 41.621094 101.304688 40.773438 101.777344 C 39.921875 102.253906 39.113281 102.804688 38.351562 103.421875 C 37.589844 104.046875 36.929688 104.765625 36.375 105.578125 C 37.066406 104.90625 37.804688 104.292969 38.585938 103.734375 C 39.367188 103.1875 40.175781 102.675781 41.023438 102.207031 C 41.867188 101.738281 42.699219 101.277344 43.546875 100.808594 C 44.394531 100.339844 45.199219 99.816406 46.164062 99.621094 C 45.671875 99.625 45.195312 99.71875 44.730469 99.894531 C 44.25 100.0625 43.820312 100.273438 43.378906 100.46875 Z M 43.378906 100.46875 " fill-opacity="1" fill-rule="nonzero"/><path fill="#d2dfce" d="M 48.703125 92.292969 C 48.535156 93.21875 48.390625 94.144531 48.246094 95.074219 C 48.105469 96 47.960938 96.929688 47.792969 97.855469 C 48.148438 96.976562 48.425781 96.070312 48.625 95.140625 C 48.832031 94.222656 49.003906 93.296875 49.183594 92.371094 C 49.367188 91.441406 49.550781 90.539062 49.796875 89.640625 C 50.042969 88.734375 50.359375 87.855469 50.746094 87 C 50.179688 87.773438 49.742188 88.613281 49.433594 89.523438 C 49.117188 90.425781 48.875 91.347656 48.703125 92.292969 Z M 48.703125 92.292969 " fill-opacity="1" fill-rule="nonzero"/><path fill="#d2dfce" d="M 36.125 92.394531 C 35.070312 92.722656 33.976562 92.761719 32.921875 93.230469 C 32.664062 93.347656 32.414062 93.488281 32.179688 93.648438 L 31.515625 94.160156 C 31.089844 94.511719 30.683594 94.890625 30.269531 95.257812 C 29.460938 96 28.667969 96.734375 27.742188 97.269531 C 26.816406 97.804688 25.777344 98.183594 24.667969 98.089844 C 24.9375 98.160156 25.210938 98.199219 25.488281 98.210938 C 25.769531 98.210938 26.046875 98.191406 26.324219 98.144531 C 26.878906 98.039062 27.410156 97.855469 27.910156 97.59375 C 28.925781 97.085938 29.773438 96.339844 30.582031 95.609375 C 30.984375 95.230469 31.386719 94.863281 31.789062 94.511719 L 32.429688 93.988281 C 32.640625 93.832031 32.863281 93.695312 33.09375 93.570312 C 34.015625 93.074219 35.148438 92.90625 36.125 92.394531 Z M 36.125 92.394531 " fill-opacity="1" fill-rule="nonzero"/><path fill="#d2dfce" d="M 26.714844 86.816406 C 27.371094 86.710938 28.019531 86.558594 28.652344 86.359375 C 28.972656 86.253906 29.277344 86.117188 29.566406 85.941406 C 29.855469 85.765625 30.089844 85.527344 30.269531 85.238281 C 29.839844 85.746094 29.199219 85.980469 28.589844 86.125 C 27.953125 86.265625 27.308594 86.367188 26.660156 86.4375 C 25.367188 86.574219 24.074219 86.558594 22.78125 86.398438 C 22.136719 86.324219 21.5 86.207031 20.867188 86.046875 C 20.554688 85.96875 20.242188 85.890625 19.929688 85.785156 L 19.695312 85.71875 L 19.488281 85.640625 L 19.058594 85.433594 C 18.484375 85.117188 17.925781 84.777344 17.339844 84.464844 C 17.042969 84.308594 16.738281 84.167969 16.429688 84.046875 C 16.117188 83.917969 15.789062 83.863281 15.453125 83.878906 C 15.78125 83.914062 16.089844 84.015625 16.375 84.179688 C 16.664062 84.335938 16.949219 84.492188 17.222656 84.675781 C 17.769531 85.027344 18.304688 85.417969 18.875 85.757812 L 19.320312 86.007812 L 19.566406 86.113281 L 19.800781 86.191406 C 20.113281 86.308594 20.4375 86.398438 20.75 86.492188 C 22.710938 87.019531 24.695312 87.125 26.699219 86.804688 Z M 26.714844 86.816406 " fill-opacity="1" fill-rule="nonzero"/><path fill="#d2dfce" d="M 28.679688 72.628906 C 28.886719 73.230469 29.097656 73.871094 29.253906 74.484375 C 29.421875 75.101562 29.511719 75.726562 29.511719 76.367188 C 29.527344 77.007812 29.460938 77.660156 29.472656 78.324219 C 29.488281 78.996094 29.578125 79.660156 29.734375 80.3125 C 30.039062 81.625 30.609375 82.8125 31.453125 83.863281 C 30.792969 82.734375 30.347656 81.523438 30.113281 80.234375 C 29.996094 79.601562 29.941406 78.964844 29.941406 78.324219 C 29.941406 77.683594 30.007812 77.03125 30.007812 76.367188 C 30 75.6875 29.898438 75.019531 29.707031 74.367188 C 29.617188 74.039062 29.511719 73.726562 29.394531 73.425781 C 29.277344 73.125 29.175781 72.800781 29.042969 72.5 C 28.535156 71.285156 27.925781 70.121094 27.378906 68.933594 C 27.730469 70.1875 28.238281 71.402344 28.679688 72.628906 Z M 28.679688 72.628906 " fill-opacity="1" fill-rule="nonzero"/><path fill="#d2dfce" d="M 41.179688 82.0625 C 40.851562 82.492188 40.5 82.898438 40.136719 83.328125 C 39.765625 83.761719 39.445312 84.226562 39.171875 84.726562 C 38.914062 85.234375 38.703125 85.761719 38.546875 86.308594 C 38.253906 87.386719 38.070312 88.484375 38 89.601562 C 38.289062 88.527344 38.535156 87.457031 38.914062 86.425781 C 39.09375 85.914062 39.316406 85.421875 39.578125 84.949219 C 39.839844 84.484375 40.148438 84.046875 40.5 83.644531 C 40.851562 83.226562 41.21875 82.792969 41.542969 82.335938 C 41.867188 81.882812 42.164062 81.410156 42.441406 80.925781 C 42.984375 79.960938 43.46875 78.960938 43.886719 77.933594 C 43.285156 78.859375 42.714844 79.816406 42.117188 80.730469 C 41.816406 81.1875 41.503906 81.644531 41.179688 82.0625 Z M 41.179688 82.0625 " fill-opacity="1" fill-rule="nonzero"/><path fill="#98aa97" d="M 105.128906 93.714844 L 105.453125 93.441406 C 105.898438 92.160156 107.09375 91.324219 107.992188 90.304688 C 108.40625 89.820312 108.757812 89.289062 109.039062 88.71875 C 109.320312 88.144531 109.53125 87.546875 109.664062 86.921875 C 109.796875 86.296875 109.851562 85.664062 109.824219 85.023438 C 109.800781 84.386719 109.699219 83.757812 109.515625 83.144531 C 109.113281 81.839844 108.28125 80.585938 107.015625 80.101562 C 106.875 80.027344 106.730469 80.023438 106.585938 80.089844 C 106.5 80.15625 106.4375 80.246094 106.40625 80.351562 L 104.296875 85.328125 C 103.972656 86.023438 103.714844 86.742188 103.515625 87.484375 C 103.007812 89.652344 103.644531 92.054688 105.128906 93.714844 Z M 105.128906 93.714844 " fill-opacity="1" fill-rule="nonzero"/><path fill="#98aa97" d="M 112.082031 96.628906 C 110.296875 95.398438 108.148438 94.617188 105.988281 94.761719 L 105.898438 95.085938 C 106.59375 96.09375 107.164062 97.167969 107.601562 98.3125 C 107.890625 99.058594 108.125 99.828125 108.5 100.535156 C 109.710938 102.742188 112.300781 103.890625 114.800781 104.113281 C 114.921875 104.140625 115.035156 104.125 115.140625 104.0625 C 115.195312 104.011719 115.234375 103.949219 115.257812 103.878906 C 115.804688 102.558594 115.609375 101.003906 114.972656 99.722656 C 114.332031 98.445312 113.253906 97.4375 112.082031 96.628906 Z M 112.082031 96.628906 " fill-opacity="1" fill-rule="nonzero"/><g clip-path="url(#0672135d2c)"><path fill="#98aa97" d="M 135.917969 85.378906 C 135.824219 85.230469 135.699219 85.113281 135.542969 85.027344 C 133.222656 83.5 130.21875 83.226562 127.523438 83.890625 C 125.0625 84.492188 122.835938 85.8125 120.871094 87.40625 C 120.777344 87.128906 120.492188 86.921875 120.152344 87.089844 L 120.0625 87.128906 C 120.386719 86.9375 120.6875 86.710938 120.960938 86.453125 C 121.832031 85.679688 122.71875 84.898438 123.445312 83.96875 C 125.855469 80.914062 126.195312 76.378906 124.265625 72.996094 C 124.058594 72.628906 123.796875 72.25 123.394531 72.121094 C 122.601562 71.847656 121.882812 72.65625 121.429688 73.359375 C 120.792969 74.339844 120.152344 75.347656 119.800781 76.457031 C 119.359375 77.84375 119.398438 79.332031 119.4375 80.78125 L 119.59375 87.289062 L 119.816406 87.234375 L 119.90625 87.195312 C 117.574219 88.320312 115.246094 89.457031 112.886719 90.539062 L 113.070312 89.847656 C 113.175781 88.386719 114.660156 87.507812 115.6875 86.453125 C 115.992188 86.136719 116.261719 85.792969 116.492188 85.421875 C 116.726562 85.046875 116.914062 84.65625 117.0625 84.242188 C 117.210938 83.828125 117.316406 83.402344 117.375 82.96875 C 117.429688 82.53125 117.441406 82.097656 117.40625 81.65625 C 117.371094 81.21875 117.292969 80.789062 117.164062 80.371094 C 117.039062 79.949219 116.867188 79.546875 116.65625 79.164062 C 116.445312 78.777344 116.195312 78.421875 115.90625 78.089844 C 115.617188 77.761719 115.296875 77.464844 114.945312 77.203125 C 113.550781 78.480469 112.824219 80.351562 112.5625 82.230469 C 112.300781 84.113281 112.472656 86.007812 112.640625 87.902344 L 112.875 90.554688 C 110.21875 91.78125 107.539062 92.96875 104.804688 94.042969 C 102.589844 94.917969 100.324219 95.621094 98.058594 96.339844 L 98.28125 96.144531 C 99.949219 94.1875 100.910156 91.929688 101.15625 89.363281 C 101.289062 87.925781 101.15625 86.425781 100.558594 85.117188 C 99.914062 83.746094 98.902344 82.746094 97.527344 82.113281 C 96.277344 83.785156 95.78125 85.914062 95.507812 87.992188 C 95.378906 89.039062 95.300781 90.109375 95.546875 91.140625 C 95.707031 91.71875 95.914062 92.273438 96.171875 92.8125 L 97.773438 96.433594 C 94.84375 97.347656 91.925781 98.273438 89.140625 99.542969 C 88.488281 99.84375 88.933594 100.847656 89.582031 100.5625 C 92.644531 99.164062 95.859375 98.183594 99.074219 97.175781 C 101.390625 100.378906 101.796875 104.558594 102.121094 108.503906 C 102.695312 107.667969 103.839844 107.472656 104.621094 106.832031 C 105.402344 106.191406 105.636719 105.460938 105.78125 104.625 C 105.960938 103.550781 105.804688 102.402344 105.179688 101.515625 C 104.789062 100.964844 104.257812 100.5625 103.734375 100.15625 L 100.78125 97.910156 C 100.335938 97.570312 99.882812 97.230469 99.375 97.058594 C 101.339844 96.433594 103.304688 95.804688 105.234375 95.046875 C 108.214844 93.871094 111.144531 92.566406 114.035156 91.207031 L 113.929688 91.390625 C 114.515625 92.148438 114.917969 93.023438 115.414062 93.832031 C 115.914062 94.628906 116.5 95.359375 117.171875 96.019531 C 117.84375 96.679688 118.578125 97.25 119.386719 97.738281 C 120.191406 98.222656 121.039062 98.609375 121.9375 98.894531 C 122.832031 99.179688 123.746094 99.355469 124.683594 99.425781 C 124.839844 99.449219 124.992188 99.429688 125.140625 99.371094 C 125.261719 99.300781 125.351562 99.199219 125.414062 99.070312 C 125.710938 98.507812 125.660156 97.804688 125.398438 97.214844 C 125.140625 96.628906 124.722656 96.132812 124.304688 95.648438 C 123.1875 94.355469 122.015625 93.023438 120.464844 92.332031 C 119.855469 92.074219 119.226562 91.878906 118.578125 91.742188 C 117.230469 91.429688 115.875 91.1875 114.503906 91.011719 C 116.480469 90.082031 118.449219 89.128906 120.414062 88.1875 C 123.1875 89.886719 126.636719 89.980469 129.890625 89.941406 C 131.859375 89.914062 134.136719 89.71875 135.28125 88.109375 C 135.722656 87.496094 135.933594 86.75 136.011719 85.996094 C 136.042969 85.78125 136.011719 85.574219 135.917969 85.378906 Z M 135.917969 85.378906 " fill-opacity="1" fill-rule="nonzero"/></g><path fill="#d2dfce" d="M 107.40625 82.035156 C 107.375 81.917969 107.332031 81.804688 107.277344 81.695312 C 107.214844 81.589844 107.144531 81.496094 107.054688 81.410156 C 107.34375 81.800781 107.34375 82.296875 107.265625 82.753906 C 107.222656 82.984375 107.164062 83.210938 107.09375 83.433594 L 106.886719 84.113281 C 106.585938 85.015625 106.261719 85.902344 105.949219 86.816406 C 105.625 87.730469 105.386719 88.667969 105.234375 89.625 C 105.070312 90.59375 105.09375 91.554688 105.3125 92.511719 C 105.269531 91.5625 105.359375 90.621094 105.570312 89.691406 C 105.785156 88.765625 106.050781 87.855469 106.367188 86.960938 C 106.664062 86.058594 106.976562 85.144531 107.210938 84.21875 C 107.339844 83.746094 107.425781 83.265625 107.472656 82.78125 C 107.488281 82.527344 107.46875 82.28125 107.40625 82.035156 Z M 107.40625 82.035156 " fill-opacity="1" fill-rule="nonzero"/><path fill="#d2dfce" d="M 113.460938 86.765625 C 113.800781 85.890625 114.203125 85.027344 114.515625 84.101562 C 114.667969 83.636719 114.785156 83.167969 114.867188 82.6875 C 114.945312 82.207031 114.984375 81.726562 114.984375 81.238281 C 114.992188 80.265625 114.832031 79.320312 114.503906 78.402344 C 114.65625 79.339844 114.707031 80.28125 114.644531 81.226562 C 114.585938 82.160156 114.40625 83.070312 114.113281 83.957031 C 113.824219 84.84375 113.433594 85.71875 113.160156 86.648438 C 112.886719 87.574219 112.691406 88.554688 112.863281 89.496094 C 112.847656 88.542969 113.121094 87.640625 113.460938 86.765625 Z M 113.460938 86.765625 " fill-opacity="1" fill-rule="nonzero"/><path fill="#d2dfce" d="M 122.367188 80.3125 C 122.628906 79.226562 122.789062 78.121094 122.847656 77.007812 C 122.90625 75.890625 122.8125 74.789062 122.5625 73.699219 C 122.632812 74.796875 122.613281 75.890625 122.496094 76.980469 C 122.375 78.066406 122.183594 79.144531 121.921875 80.207031 C 121.675781 81.265625 121.363281 82.324219 121.050781 83.382812 C 120.738281 84.441406 120.386719 85.484375 120.089844 86.542969 C 120.566406 85.542969 120.996094 84.523438 121.378906 83.484375 C 121.769531 82.449219 122.101562 81.390625 122.367188 80.3125 Z M 122.367188 80.3125 " fill-opacity="1" fill-rule="nonzero"/><path fill="#d2dfce" d="M 131 86.476562 C 129.851562 86.53125 128.707031 86.632812 127.574219 86.75 C 126.441406 86.871094 125.296875 87.050781 124.175781 87.25 C 123.054688 87.445312 121.921875 87.691406 120.816406 87.992188 C 121.960938 87.875 123.09375 87.71875 124.226562 87.589844 L 127.625 87.183594 L 131.023438 86.804688 C 132.15625 86.6875 133.289062 86.570312 134.433594 86.425781 C 133.289062 86.398438 132.144531 86.425781 131 86.476562 Z M 131 86.476562 " fill-opacity="1" fill-rule="nonzero"/><path fill="#d2dfce" d="M 119.75 94.5 C 119.382812 94.136719 118.992188 93.800781 118.578125 93.492188 C 118.160156 93.191406 117.722656 92.917969 117.261719 92.683594 C 116.347656 92.199219 115.378906 91.878906 114.359375 91.714844 C 115.316406 92.042969 116.226562 92.464844 117.09375 92.984375 C 117.949219 93.5 118.730469 94.109375 119.4375 94.8125 C 119.800781 95.164062 120.152344 95.53125 120.53125 95.882812 C 120.910156 96.242188 121.324219 96.554688 121.765625 96.824219 C 122.664062 97.359375 123.640625 97.671875 124.617188 97.949219 C 123.707031 97.503906 122.769531 97.097656 121.960938 96.535156 C 121.15625 95.976562 120.480469 95.230469 119.75 94.5 Z M 119.75 94.5 " fill-opacity="1" fill-rule="nonzero"/><path fill="#d2dfce" d="M 113.34375 100.652344 C 112.785156 99.945312 112.199219 99.265625 111.574219 98.613281 C 110.949219 97.953125 110.269531 97.363281 109.53125 96.835938 C 108.785156 96.300781 107.976562 95.910156 107.09375 95.660156 C 107.890625 96.0625 108.632812 96.546875 109.320312 97.113281 C 109.660156 97.386719 110 97.671875 110.308594 97.988281 C 110.621094 98.300781 110.949219 98.601562 111.246094 98.925781 C 111.859375 99.566406 112.457031 100.234375 113.070312 100.886719 C 113.683594 101.539062 114.253906 102.207031 114.527344 103.070312 C 114.472656 102.609375 114.328125 102.175781 114.097656 101.777344 C 113.878906 101.378906 113.628906 101.003906 113.34375 100.652344 Z M 113.34375 100.652344 " fill-opacity="1" fill-rule="nonzero"/><path fill="#d2dfce" d="M 103.851562 105.042969 L 103.851562 104.714844 C 103.839844 104.28125 103.792969 103.847656 103.710938 103.421875 C 103.617188 102.996094 103.496094 102.578125 103.34375 102.167969 C 103.035156 101.34375 102.601562 100.589844 102.042969 99.90625 C 101.496094 99.230469 100.84375 98.671875 100.089844 98.234375 C 100.722656 98.796875 101.28125 99.425781 101.769531 100.117188 C 101.886719 100.285156 101.992188 100.46875 102.109375 100.640625 C 102.226562 100.808594 102.316406 100.992188 102.421875 101.1875 C 102.523438 101.382812 102.617188 101.554688 102.695312 101.75 L 102.824219 102.035156 L 102.929688 102.324219 C 103.230469 103.105469 103.425781 103.910156 103.515625 104.742188 L 103.539062 105.054688 L 103.539062 105.367188 C 103.554688 105.578125 103.554688 105.785156 103.539062 105.996094 C 103.515625 106.398438 103.421875 106.832031 103.148438 107.15625 C 103.5 106.898438 103.671875 106.453125 103.761719 106.019531 C 103.804688 105.804688 103.828125 105.585938 103.839844 105.367188 C 103.851562 105.261719 103.851562 105.144531 103.851562 105.042969 Z M 103.851562 105.042969 " fill-opacity="1" fill-rule="nonzero"/><path fill="#d2dfce" d="M 98.371094 93.597656 C 98.488281 92.695312 98.660156 91.78125 98.789062 90.867188 C 98.855469 90.410156 98.894531 89.941406 98.917969 89.46875 C 98.945312 89 98.945312 88.527344 98.917969 88.070312 C 98.871094 87.140625 98.761719 86.21875 98.59375 85.300781 C 98.582031 86.230469 98.59375 87.15625 98.582031 88.070312 C 98.566406 88.984375 98.492188 89.894531 98.359375 90.800781 C 98.242188 91.714844 98.085938 92.628906 98.035156 93.558594 C 97.953125 94.496094 98.039062 95.421875 98.292969 96.328125 C 98.214844 95.414062 98.238281 94.503906 98.371094 93.597656 Z M 98.371094 93.597656 " fill-opacity="1" fill-rule="nonzero"/><path fill="#553b2e" d="M 91.691406 87.546875 C 91.757812 84.492188 91.824219 81.238281 90.558594 78.429688 C 89.726562 76.574219 87.226562 73.765625 88.308594 71.492188 C 88.398438 71.285156 88.527344 71.101562 88.605469 70.890625 C 88.972656 69.898438 88.359375 69.335938 87.332031 69.039062 C 87.4375 68.816406 87.359375 68.539062 87.382812 68.292969 C 87.421875 67.820312 87.785156 67.390625 87.671875 66.933594 C 87.554688 66.476562 87.304688 66.398438 87.226562 66.085938 C 87.148438 65.769531 87.28125 65.457031 87.320312 65.132812 C 87.351562 64.898438 87.296875 64.6875 87.148438 64.503906 C 87.039062 64.386719 86.992188 64.246094 87.019531 64.085938 C 87.054688 63.71875 86.929688 63.417969 86.640625 63.183594 C 86.289062 62.898438 85.820312 62.820312 85.378906 62.78125 C 84.726562 62.726562 84.0625 62.726562 83.414062 62.726562 L 77.148438 62.78125 C 76.746094 62.761719 76.351562 62.808594 75.964844 62.921875 C 75.589844 63.054688 75.238281 63.339844 75.144531 63.734375 C 75.054688 64.125 75.25 64.699219 74.964844 65.066406 C 74.863281 65.167969 74.761719 65.265625 74.652344 65.351562 C 74.519531 65.488281 74.433594 65.648438 74.402344 65.835938 C 74.367188 66.019531 74.390625 66.199219 74.46875 66.371094 C 74.652344 66.765625 75.121094 67.117188 74.9375 67.507812 C 74.871094 67.652344 74.714844 67.742188 74.625 67.863281 C 74.351562 68.1875 74.46875 68.578125 74.703125 68.894531 L 74.808594 68.996094 L 74.703125 69.023438 C 74.3125 69.128906 73.894531 69.3125 73.675781 69.691406 C 73.453125 70.070312 73.375 70.996094 73.609375 71.402344 C 73.84375 71.808594 74.128906 71.847656 74.273438 72.171875 C 74.332031 72.328125 74.359375 72.488281 74.363281 72.65625 L 74.402344 73.425781 C 74.425781 73.640625 74.414062 73.855469 74.363281 74.066406 C 74.105469 74.941406 73.050781 75.621094 72.464844 76.195312 C 69.519531 79.070312 70.054688 84.257812 70.003906 88.175781 C 69.910156 96.210938 70.667969 104.257812 70.316406 112.292969 C 70.261719 113.507812 70.261719 114.929688 71.121094 115.664062 C 71.550781 116.027344 72.113281 116.144531 72.632812 116.238281 C 77.996094 117.152344 83.464844 117.058594 88.867188 116.421875 C 89.453125 116.355469 90.078125 116.261719 90.574219 115.910156 C 91.71875 115.085938 91.796875 113.273438 91.691406 111.742188 C 91.144531 103.683594 91.535156 95.609375 91.691406 87.546875 Z M 91.691406 87.546875 " fill-opacity="1" fill-rule="nonzero"/><path fill="#31221b" d="M 74.195312 71.675781 C 76.445312 71.167969 78.75 71.167969 81.042969 71.207031 C 82.136719 71.21875 83.230469 71.246094 84.324219 71.21875 C 85.417969 71.191406 86.617188 70.984375 87.722656 71.414062 C 87.890625 71.480469 87.96875 71.207031 87.800781 71.140625 C 86.746094 70.734375 85.679688 70.878906 84.570312 70.929688 C 83.464844 70.984375 82.214844 70.945312 81.042969 70.929688 C 78.726562 70.90625 76.394531 70.90625 74.117188 71.414062 C 73.933594 71.453125 74.011719 71.742188 74.195312 71.6875 Z M 74.195312 71.675781 " fill-opacity="1" fill-rule="nonzero"/><path fill="#31221b" d="M 73.921875 75.125 C 75.707031 76.5625 78.191406 76.390625 80.339844 76.390625 C 83.023438 76.390625 85.757812 76.105469 88.191406 74.902344 C 88.359375 74.824219 88.214844 74.578125 88.046875 74.65625 C 85.730469 75.804688 83.125 76.089844 80.5625 76.105469 C 78.453125 76.117188 75.875 76.328125 74.128906 74.914062 C 73.988281 74.796875 73.777344 75.007812 73.921875 75.125 Z M 73.921875 75.125 " fill-opacity="1" fill-rule="nonzero"/><path fill="#31221b" d="M 72.175781 114.304688 C 75.171875 114.589844 78.242188 114.449219 81.25 114.472656 C 84.257812 114.5 87.019531 114.695312 89.84375 114.210938 C 90.027344 114.1875 89.949219 113.898438 89.765625 113.9375 C 86.890625 114.433594 83.894531 114.210938 80.992188 114.1875 C 78.085938 114.160156 75.082031 114.304688 72.175781 114.015625 C 71.996094 114.003906 71.996094 114.289062 72.175781 114.304688 Z M 72.175781 114.304688 " fill-opacity="1" fill-rule="nonzero"/><path fill="#e6e7e8" d="M 87.800781 76.808594 C 89.269531 78.390625 90 80.664062 90.285156 82.765625 C 90.3125 82.949219 90.585938 82.871094 90.558594 82.6875 C 90.261719 80.535156 89.503906 78.222656 87.996094 76.601562 C 87.863281 76.46875 87.65625 76.667969 87.785156 76.808594 Z M 87.800781 76.808594 " fill-opacity="1" fill-rule="nonzero"/><path fill="#e6e7e8" d="M 90.417969 84.140625 L 90.417969 84.753906 C 90.417969 84.847656 90.464844 84.898438 90.558594 84.898438 C 90.65625 84.898438 90.703125 84.847656 90.703125 84.753906 L 90.703125 84.140625 C 90.703125 84.042969 90.65625 83.996094 90.558594 83.996094 C 90.464844 83.996094 90.417969 84.042969 90.417969 84.140625 Z M 90.417969 84.140625 " fill-opacity="1" fill-rule="nonzero"/><path fill="#e6e7e8" d="M 87.136719 74.367188 C 86.953125 74.054688 87.019531 73.503906 87.007812 73.152344 L 86.953125 71.949219 C 86.941406 71.765625 86.65625 71.765625 86.667969 71.949219 L 86.734375 73.519531 C 86.746094 73.859375 86.71875 74.210938 86.890625 74.511719 C 86.9375 74.585938 87.003906 74.601562 87.078125 74.554688 C 87.15625 74.511719 87.175781 74.449219 87.136719 74.367188 Z M 87.136719 74.367188 " fill-opacity="1" fill-rule="nonzero"/><path fill="#e6e7e8" d="M 87.4375 70.722656 C 87.613281 70.613281 87.734375 70.460938 87.804688 70.265625 C 87.871094 70.070312 87.871094 69.871094 87.800781 69.675781 C 87.734375 69.507812 87.460938 69.574219 87.527344 69.753906 C 87.578125 69.886719 87.585938 70.023438 87.539062 70.15625 C 87.496094 70.292969 87.414062 70.398438 87.292969 70.472656 C 87.125 70.566406 87.28125 70.8125 87.4375 70.722656 Z M 87.4375 70.722656 " fill-opacity="1" fill-rule="nonzero"/><path fill="#e6e7e8" d="M 90.675781 112.894531 C 90.632812 113.789062 90.277344 114.539062 89.609375 115.140625 C 89.464844 115.269531 89.675781 115.464844 89.816406 115.347656 C 90.535156 114.6875 90.917969 113.871094 90.964844 112.894531 C 90.976562 112.710938 90.691406 112.710938 90.675781 112.894531 Z M 90.675781 112.894531 " fill-opacity="1" fill-rule="nonzero"/><path fill="#31221b" d="M 75.757812 65 C 77.371094 64.4375 79.078125 64.28125 80.78125 64.242188 C 82.488281 64.203125 84.234375 64.191406 85.964844 64.164062 C 86.058594 64.164062 86.105469 64.117188 86.105469 64.019531 C 86.105469 63.925781 86.058594 63.878906 85.964844 63.875 C 84.15625 63.902344 82.359375 63.902344 80.546875 63.96875 C 78.738281 64.035156 77.253906 64.191406 75.679688 64.738281 C 75.511719 64.804688 75.574219 65.078125 75.757812 65.011719 Z M 75.757812 65 " fill-opacity="1" fill-rule="nonzero"/><path fill="#31221b" d="M 75.210938 66.4375 C 78.894531 65.417969 82.722656 65.457031 86.511719 65.511719 C 86.605469 65.507812 86.652344 65.460938 86.652344 65.367188 C 86.652344 65.269531 86.605469 65.222656 86.511719 65.222656 C 82.695312 65.15625 78.84375 65.117188 75.132812 66.148438 C 75.054688 66.183594 75.027344 66.242188 75.050781 66.320312 C 75.074219 66.402344 75.125 66.4375 75.210938 66.425781 Z M 75.210938 66.4375 " fill-opacity="1" fill-rule="nonzero"/><path fill="#31221b" d="M 75.613281 67.457031 C 79.335938 66.75 83.125 66.644531 86.902344 66.726562 C 86.996094 66.726562 87.046875 66.675781 87.046875 66.582031 C 87.046875 66.484375 86.996094 66.4375 86.902344 66.4375 C 83.101562 66.359375 79.285156 66.476562 75.535156 67.183594 C 75.355469 67.222656 75.433594 67.496094 75.613281 67.457031 Z M 75.613281 67.457031 " fill-opacity="1" fill-rule="nonzero"/><path fill="#31221b" d="M 75.289062 68.710938 C 79 67.863281 82.917969 68.003906 86.695312 67.835938 C 86.875 67.820312 86.875 67.535156 86.695312 67.546875 C 82.890625 67.71875 78.945312 67.574219 75.222656 68.4375 C 75.042969 68.476562 75.121094 68.761719 75.300781 68.710938 Z M 75.289062 68.710938 " fill-opacity="1" fill-rule="nonzero"/><path fill="#31221b" d="M 77.019531 69.140625 C 78.570312 68.917969 80.117188 68.894531 81.679688 68.917969 L 83.84375 68.972656 C 84.648438 68.984375 85.457031 68.878906 86.238281 69.039062 C 86.421875 69.078125 86.5 68.789062 86.316406 68.761719 C 85.574219 68.605469 84.84375 68.699219 84.089844 68.683594 C 83.335938 68.671875 82.476562 68.632812 81.667969 68.617188 C 80.085938 68.566406 78.511719 68.644531 76.941406 68.855469 C 76.757812 68.878906 76.835938 69.15625 77.019531 69.128906 Z M 77.019531 69.140625 " fill-opacity="1" fill-rule="nonzero"/><path fill="#cacaca" d="M 57.296875 89.480469 C 57.894531 88.292969 71.578125 58.953125 72.230469 57.789062 C 72.699219 56.964844 73.425781 56.742188 74.089844 56.117188 C 74.542969 55.671875 74.871094 55.152344 75.070312 54.550781 C 75.273438 53.949219 75.328125 53.335938 75.238281 52.707031 C 75.195312 52.558594 75.191406 52.414062 75.222656 52.261719 C 75.328125 51.960938 75.679688 51.882812 75.964844 51.882812 C 76.988281 51.882812 77.910156 52.191406 78.726562 52.8125 C 79.390625 53.320312 79.140625 54.195312 78.570312 54.796875 C 77.996094 55.398438 77.539062 55.6875 77.332031 56.3125 C 77.125 56.941406 77.304688 57.449219 77.34375 58.023438 C 77.4375 59.421875 76.851562 60.769531 76.238281 62.007812 C 75.484375 63.5625 74.753906 65.117188 74.027344 66.671875 C 72.578125 69.746094 71.144531 72.828125 69.730469 75.921875 C 68.363281 78.886719 63.792969 88.621094 62.347656 91.769531 Z M 57.296875 89.480469 " fill-opacity="1" fill-rule="nonzero"/><path fill="#e6e7e8" d="M 75.730469 54.496094 C 75.496094 55.382812 75.039062 56.136719 74.363281 56.757812 C 73.871094 57.199219 73.335938 57.578125 73.050781 58.195312 C 72.972656 58.363281 73.21875 58.507812 73.296875 58.335938 C 73.660156 57.554688 74.457031 57.160156 74.988281 56.523438 C 75.472656 55.945312 75.8125 55.292969 76.003906 54.5625 C 76.019531 54.476562 75.984375 54.425781 75.902344 54.402344 C 75.820312 54.378906 75.765625 54.40625 75.730469 54.484375 Z M 75.730469 54.496094 " fill-opacity="1" fill-rule="nonzero"/><path fill="#e6e7e8" d="M 76.421875 53.542969 C 76.40625 53.292969 76.46875 53.0625 76.601562 52.851562 C 76.707031 52.695312 76.445312 52.550781 76.355469 52.707031 C 76.195312 52.960938 76.121094 53.242188 76.136719 53.542969 C 76.148438 53.726562 76.433594 53.726562 76.421875 53.542969 Z M 76.421875 53.542969 " fill-opacity="1" fill-rule="nonzero"/><path fill="#e6e7e8" d="M 58.570312 88.984375 C 62.359375 80.875 66.238281 72.800781 70.054688 64.6875 C 70.835938 63.015625 71.628906 61.34375 72.386719 59.671875 C 72.464844 59.5 72.214844 59.355469 72.136719 59.527344 C 68.414062 67.71875 64.484375 75.816406 60.628906 83.957031 C 59.855469 85.585938 59.089844 87.214844 58.324219 88.84375 C 58.246094 89.011719 58.492188 89.15625 58.570312 88.984375 Z M 58.570312 88.984375 " fill-opacity="1" fill-rule="nonzero"/><path fill="#101010" d="M 52.621094 87.730469 C 53.234375 87.535156 55.1875 88.503906 55.628906 88.660156 C 56.839844 89.101562 58.023438 89.613281 59.195312 90.148438 C 61.460938 91.195312 63.648438 92.382812 65.847656 93.558594 C 66.042969 93.664062 66.253906 93.78125 66.34375 94.003906 C 66.433594 94.222656 66.316406 94.65625 66.1875 94.96875 L 63.023438 101.984375 C 62.777344 102.519531 62.53125 103.070312 62.152344 103.511719 C 61.773438 103.957031 61.214844 104.269531 60.695312 104.207031 C 60.40625 104.167969 60.054688 104.035156 59.847656 104.285156 C 59.640625 104.53125 59.730469 104.507812 59.664062 104.609375 C 59.601562 104.714844 59.222656 104.820312 58.976562 104.859375 C 58.023438 105.027344 57.4375 106.125 57.023438 107.078125 C 56.265625 108.777344 55.5625 110.527344 54.769531 112.199219 C 53.730469 114.371094 52.324219 116.5 49.992188 116.707031 C 48.417969 116.851562 46.59375 115.859375 45.851562 114.433594 C 44.886719 112.566406 46.019531 110.738281 46.855469 108.933594 C 47.6875 107.132812 48.417969 105.445312 49.121094 103.667969 C 49.289062 103.226562 49.472656 102.769531 49.496094 102.296875 C 49.550781 101.332031 48.976562 100.429688 49.199219 99.476562 C 49.230469 99.386719 49.242188 99.296875 49.238281 99.203125 C 49.207031 99.097656 49.144531 99.015625 49.054688 98.953125 C 48.652344 98.613281 48.207031 98.222656 48.167969 97.648438 C 48.167969 97.363281 48.214844 97.089844 48.3125 96.824219 C 48.820312 95.140625 49.421875 93.488281 50.121094 91.871094 C 50.472656 91.0625 51.527344 87.808594 52.503906 87.785156 Z M 52.621094 87.730469 " fill-opacity="1" fill-rule="nonzero"/><path fill="#e6e7e8" d="M 59.261719 103.789062 C 57.570312 103.289062 56.085938 102.335938 54.484375 101.65625 C 53.089844 101.058594 51.515625 100.78125 50.394531 99.671875 C 50.324219 99.601562 50.257812 99.601562 50.1875 99.671875 C 50.117188 99.742188 50.117188 99.8125 50.1875 99.882812 C 51.308594 100.992188 52.84375 101.304688 54.261719 101.878906 C 55.929688 102.574219 57.453125 103.566406 59.183594 104.074219 C 59.265625 104.089844 59.320312 104.054688 59.34375 103.972656 C 59.367188 103.890625 59.339844 103.832031 59.261719 103.800781 Z M 59.261719 103.789062 " fill-opacity="1" fill-rule="nonzero"/><path fill="#e6e7e8" d="M 49.964844 97.4375 C 49.847656 95.960938 50.394531 94.617188 50.996094 93.308594 C 51.59375 92.003906 52.230469 90.65625 52.84375 89.339844 C 52.921875 89.167969 52.675781 89.023438 52.597656 89.195312 C 51.917969 90.65625 51.214844 92.121094 50.550781 93.597656 C 50.003906 94.824219 49.5625 96.09375 49.679688 97.453125 C 49.691406 97.632812 49.980469 97.632812 49.964844 97.453125 Z M 49.964844 97.4375 " fill-opacity="1" fill-rule="nonzero"/><path fill="#e6e7e8" d="M 47.011719 114.03125 C 46.371094 112.878906 46.894531 111.652344 47.414062 110.582031 C 47.492188 110.410156 47.246094 110.265625 47.167969 110.4375 C 46.59375 111.625 46.074219 112.933594 46.761719 114.1875 C 46.8125 114.261719 46.875 114.277344 46.953125 114.230469 C 47.03125 114.1875 47.050781 114.125 47.011719 114.042969 Z M 47.011719 114.03125 " fill-opacity="1" fill-rule="nonzero"/></svg>