<svg xmlns="http://www.w3.org/2000/svg" xmlns:xlink="http://www.w3.org/1999/xlink" width="200" zoomAndPan="magnify" viewBox="0 0 150 165.000002" height="220" preserveAspectRatio="xMidYMid meet" version="1.0"><defs><clipPath id="4fdf90d7ae"><path d="M 104 78 L 142.472656 78 L 142.472656 111 L 104 111 Z M 104 78 " clip-rule="nonzero"/></clipPath><clipPath id="fbf02eecd7"><path d="M 7.539062 84 L 46 84 L 46 111 L 7.539062 111 Z M 7.539062 84 " clip-rule="nonzero"/></clipPath><clipPath id="dee46ad90b"><path d="M 19 40.90625 L 56 40.90625 L 56 78 L 19 78 Z M 19 40.90625 " clip-rule="nonzero"/></clipPath><clipPath id="9562d94447"><path d="M 97 117 L 106 117 L 106 122.910156 L 97 122.910156 Z M 97 117 " clip-rule="nonzero"/></clipPath></defs><path fill="#dbc9a9" d="M 56.914062 118.316406 C 54.539062 118.429688 52.175781 118.457031 49.898438 117.695312 C 47.625 116.933594 45.882812 115.59375 43.847656 114.59375 C 41.429688 113.394531 38.773438 112.730469 36.425781 111.417969 C 31.460938 108.640625 28.449219 103.152344 27.519531 97.554688 C 26.5 91.429688 28.082031 84.421875 33.144531 80.824219 C 37.003906 78.085938 42.308594 77.675781 45.757812 74.433594 C 48.515625 71.851562 49.546875 67.972656 51.582031 64.796875 C 52.671875 63.113281 54.015625 61.660156 55.609375 60.4375 C 57.207031 59.214844 58.960938 58.292969 60.871094 57.675781 C 62.980469 56.996094 65.214844 56.730469 67.320312 56.054688 C 70.785156 54.925781 71.914062 52.019531 74.882812 50.425781 C 77.855469 48.832031 81.726562 47.53125 85.292969 47.984375 C 90.636719 48.648438 95.699219 53.851562 98.835938 57.773438 C 101.140625 60.664062 103.445312 63.640625 104.691406 67.113281 C 105.707031 69.976562 105.992188 73.105469 107.375 75.800781 C 109.722656 80.371094 114.84375 82.9375 117.527344 87.3125 C 120.058594 91.429688 120.117188 96.539062 120.101562 101.363281 C 120.101562 102.996094 120.074219 104.703125 119.324219 106.171875 C 118.066406 108.613281 115.351562 109.457031 113.273438 110.996094 C 110.671875 112.929688 109.597656 113.773438 106.148438 114.199219 C 103.855469 114.480469 103.136719 115.566406 101.394531 116.609375 C 99.65625 117.652344 97.832031 117.175781 95.542969 117.1875 C 87.171875 117.230469 78.941406 118.867188 70.628906 119.472656 C 67.261719 119.714844 64.660156 118.203125 61.269531 118.148438 C 59.824219 118.148438 58.371094 118.246094 56.914062 118.316406 Z M 56.914062 118.316406 " fill-opacity="1" fill-rule="nonzero"/><path fill="#537033" d="M 117.386719 98.246094 L 117.640625 97.992188 C 117.898438 96.875 118.816406 96.070312 119.464844 95.140625 C 120.074219 94.242188 120.433594 93.25 120.539062 92.167969 C 120.644531 91.089844 120.484375 90.046875 120.058594 89.046875 C 119.59375 88.003906 118.773438 87.042969 117.671875 86.746094 C 117.542969 86.699219 117.421875 86.707031 117.304688 86.777344 C 117.234375 86.84375 117.191406 86.921875 117.175781 87.015625 L 115.890625 91.359375 C 115.6875 91.972656 115.542969 92.597656 115.449219 93.238281 C 115.355469 94.175781 115.476562 95.089844 115.816406 95.972656 C 116.160156 96.855469 116.683594 97.613281 117.386719 98.246094 Z M 117.386719 98.246094 " fill-opacity="1" fill-rule="nonzero"/><path fill="#537033" d="M 123.480469 100.007812 C 121.871094 99.160156 120.003906 98.710938 118.207031 99.046875 L 118.152344 99.332031 C 118.832031 100.101562 119.410156 100.945312 119.890625 101.855469 C 120.203125 102.449219 120.46875 103.070312 120.851562 103.617188 C 122.082031 105.339844 124.359375 106.042969 126.480469 105.988281 C 126.585938 105.996094 126.679688 105.96875 126.761719 105.902344 C 126.804688 105.855469 126.832031 105.796875 126.847656 105.734375 C 127.171875 104.578125 126.875 103.308594 126.195312 102.308594 C 125.519531 101.304688 124.542969 100.558594 123.480469 100.007812 Z M 123.480469 100.007812 " fill-opacity="1" fill-rule="nonzero"/><g clip-path="url(#4fdf90d7ae)"><path fill="#537033" d="M 142.34375 88.339844 C 142.246094 88.226562 142.128906 88.140625 141.988281 88.085938 C 139.898438 87.042969 137.367188 87.101562 135.160156 87.917969 C 132.957031 88.738281 131.429688 89.964844 129.929688 91.488281 C 129.878906 91.359375 129.789062 91.273438 129.660156 91.234375 C 129.527344 91.195312 129.40625 91.210938 129.292969 91.289062 L 129.222656 91.332031 C 129.476562 91.144531 129.710938 90.925781 129.914062 90.683594 C 130.578125 89.949219 131.246094 89.214844 131.753906 88.382812 C 133.476562 85.605469 133.324219 81.796875 131.386719 79.171875 C 131.171875 78.890625 130.917969 78.59375 130.566406 78.523438 C 129.871094 78.382812 129.347656 79.117188 129.039062 79.75 C 128.601562 80.625 128.160156 81.515625 127.976562 82.488281 C 127.75 83.6875 127.921875 84.914062 128.089844 86.128906 L 128.855469 91.53125 L 129.039062 91.472656 L 129.109375 91.429688 C 127.269531 92.601562 125.417969 93.757812 123.550781 94.886719 L 123.636719 94.292969 C 123.582031 93.066406 124.738281 92.191406 125.488281 91.21875 C 125.714844 90.929688 125.90625 90.617188 126.066406 90.28125 C 126.226562 89.949219 126.347656 89.605469 126.433594 89.246094 C 126.515625 88.886719 126.5625 88.523438 126.570312 88.15625 C 126.574219 87.785156 126.542969 87.421875 126.472656 87.0625 C 126.398438 86.699219 126.289062 86.347656 126.144531 86.011719 C 125.996094 85.671875 125.816406 85.355469 125.601562 85.054688 C 125.386719 84.753906 125.140625 84.480469 124.867188 84.234375 C 124.59375 83.988281 124.296875 83.773438 123.976562 83.589844 C 122.945312 84.785156 122.507812 86.410156 122.464844 88.003906 C 122.421875 89.597656 122.746094 91.164062 123.070312 92.714844 L 123.523438 94.902344 C 121.417969 96.183594 119.28125 97.425781 117.105469 98.582031 C 115.335938 99.527344 113.511719 100.332031 111.675781 101.148438 L 111.84375 100.964844 C 113.054688 99.175781 113.640625 97.199219 113.597656 95.042969 C 113.570312 93.828125 113.316406 92.601562 112.679688 91.570312 C 112.007812 90.488281 111.066406 89.75 109.851562 89.355469 C 108.960938 90.878906 108.75 92.6875 108.734375 94.449219 C 108.71875 95.339844 108.761719 96.242188 109.074219 97.058594 C 109.261719 97.519531 109.488281 97.964844 109.753906 98.386719 L 111.449219 101.25 C 109.085938 102.292969 106.726562 103.351562 104.519531 104.675781 C 104.011719 104.988281 104.476562 105.789062 104.988281 105.480469 C 107.40625 104.027344 110.007812 102.898438 112.609375 101.757812 C 114.855469 104.195312 115.59375 107.625 116.242188 110.882812 C 116.636719 110.136719 117.585938 109.867188 118.179688 109.246094 C 118.773438 108.625 118.902344 108.003906 118.941406 107.300781 C 118.984375 106.59375 118.746094 105.4375 118.136719 104.773438 C 117.769531 104.367188 117.273438 104.070312 116.792969 103.789062 L 114.136719 102.207031 C 113.738281 101.96875 113.328125 101.726562 112.878906 101.644531 C 114.460938 100.9375 116.042969 100.21875 117.585938 99.402344 C 119.960938 98.132812 122.292969 96.761719 124.585938 95.351562 L 124.515625 95.507812 C 125.078125 96.070312 125.503906 96.761719 126 97.398438 C 126.496094 98.011719 127.054688 98.5625 127.679688 99.046875 C 128.308594 99.527344 128.980469 99.933594 129.699219 100.257812 C 130.421875 100.585938 131.171875 100.824219 131.945312 100.972656 C 132.722656 101.125 133.507812 101.183594 134.296875 101.148438 C 134.429688 101.15625 134.550781 101.125 134.664062 101.066406 C 134.757812 100.996094 134.824219 100.90625 134.863281 100.796875 C 135.0625 100.304688 134.949219 99.710938 134.664062 99.261719 C 134.382812 98.808594 133.988281 98.425781 133.589844 98.0625 C 132.53125 97.085938 131.429688 96.101562 130.054688 95.664062 C 129.519531 95.507812 128.972656 95.402344 128.417969 95.351562 C 127.261719 95.222656 126.101562 95.152344 124.9375 95.140625 C 126.507812 94.179688 128.0625 93.195312 129.605469 92.222656 C 132.09375 93.363281 134.976562 93.109375 137.707031 92.757812 C 139.359375 92.546875 141.226562 92.164062 142.03125 90.710938 C 142.332031 90.136719 142.46875 89.523438 142.441406 88.878906 C 142.46875 88.6875 142.433594 88.507812 142.34375 88.339844 Z M 142.34375 88.339844 " fill-opacity="1" fill-rule="nonzero"/></g><path fill="#a5b77f" d="M 118.152344 88.3125 C 118.113281 88.21875 118.066406 88.128906 118.007812 88.046875 C 117.949219 87.964844 117.878906 87.894531 117.796875 87.832031 C 118.082031 88.128906 118.121094 88.554688 118.09375 88.933594 C 118.082031 89.128906 118.058594 89.320312 118.023438 89.511719 C 117.996094 89.710938 117.953125 89.90625 117.910156 90.089844 C 117.753906 90.867188 117.558594 91.640625 117.386719 92.433594 C 117.207031 93.222656 117.097656 94.023438 117.0625 94.832031 C 117.019531 95.652344 117.140625 96.453125 117.414062 97.230469 C 117.289062 96.441406 117.269531 95.652344 117.359375 94.859375 C 117.445312 94.070312 117.578125 93.289062 117.753906 92.515625 C 117.910156 91.742188 118.09375 90.953125 118.207031 90.148438 C 118.269531 89.746094 118.296875 89.339844 118.292969 88.933594 C 118.277344 88.71875 118.230469 88.511719 118.152344 88.3125 Z M 118.152344 88.3125 " fill-opacity="1" fill-rule="nonzero"/><path fill="#a5b77f" d="M 123.679688 91.671875 C 123.878906 90.910156 124.132812 90.148438 124.300781 89.355469 C 124.382812 88.957031 124.433594 88.550781 124.457031 88.144531 C 124.476562 87.738281 124.460938 87.335938 124.414062 86.929688 C 124.324219 86.121094 124.101562 85.347656 123.734375 84.617188 C 123.957031 85.378906 124.089844 86.15625 124.132812 86.945312 C 124.171875 87.730469 124.109375 88.503906 123.949219 89.273438 C 123.792969 90.035156 123.550781 90.808594 123.410156 91.601562 C 123.269531 92.390625 123.199219 93.222656 123.425781 94 C 123.339844 93.207031 123.480469 92.433594 123.679688 91.671875 Z M 123.679688 91.671875 " fill-opacity="1" fill-rule="nonzero"/><path fill="#a5b77f" d="M 130.507812 85.4375 C 130.625 84.507812 130.652344 83.578125 130.59375 82.644531 C 130.539062 81.710938 130.355469 80.800781 130.042969 79.921875 C 130.210938 80.824219 130.300781 81.738281 130.3125 82.65625 C 130.3125 83.574219 130.257812 84.484375 130.140625 85.394531 C 130.042969 86.296875 129.871094 87.214844 129.71875 88.117188 C 129.5625 89.019531 129.363281 89.921875 129.222656 90.839844 C 129.523438 89.964844 129.78125 89.074219 130 88.171875 C 130.226562 87.269531 130.394531 86.359375 130.507812 85.4375 Z M 130.507812 85.4375 " fill-opacity="1" fill-rule="nonzero"/><path fill="#a5b77f" d="M 138.34375 89.722656 C 137.394531 89.878906 136.449219 90.078125 135.5 90.289062 C 134.554688 90.5 133.632812 90.753906 132.699219 91.035156 C 131.765625 91.316406 130.863281 91.628906 129.972656 91.980469 L 132.785156 91.316406 L 135.585938 90.65625 L 138.398438 90.019531 L 141.210938 89.386719 C 140.25 89.441406 139.289062 89.570312 138.34375 89.722656 Z M 138.34375 89.722656 " fill-opacity="1" fill-rule="nonzero"/><path fill="#a5b77f" d="M 129.6875 97.496094 C 129.347656 97.230469 128.988281 96.992188 128.613281 96.777344 C 128.238281 96.566406 127.847656 96.382812 127.441406 96.226562 C 126.628906 95.914062 125.792969 95.742188 124.925781 95.707031 C 125.753906 95.882812 126.554688 96.148438 127.328125 96.496094 C 128.097656 96.839844 128.8125 97.273438 129.476562 97.792969 C 129.816406 98.046875 130.140625 98.316406 130.496094 98.570312 C 130.84375 98.828125 131.214844 99.050781 131.613281 99.230469 C 132.417969 99.585938 133.253906 99.753906 134.101562 99.894531 C 133.292969 99.613281 132.472656 99.359375 131.738281 98.976562 C 131.003906 98.597656 130.367188 98.019531 129.6875 97.496094 Z M 129.6875 97.496094 " fill-opacity="1" fill-rule="nonzero"/><path fill="#a5b77f" d="M 124.925781 103.222656 C 124.386719 102.6875 123.835938 102.179688 123.253906 101.699219 C 122.671875 101.210938 122.042969 100.78125 121.375 100.417969 C 120.703125 100.046875 119.984375 99.800781 119.226562 99.683594 C 119.929688 99.9375 120.601562 100.269531 121.234375 100.671875 C 121.542969 100.867188 121.855469 101.078125 122.152344 101.304688 C 122.449219 101.53125 122.746094 101.757812 123.027344 101.996094 C 123.609375 102.460938 124.175781 102.96875 124.738281 103.449219 C 125.304688 103.929688 125.855469 104.4375 126.183594 105.128906 C 126.089844 104.753906 125.929688 104.410156 125.703125 104.097656 C 125.46875 103.785156 125.207031 103.492188 124.925781 103.222656 Z M 124.925781 103.222656 " fill-opacity="1" fill-rule="nonzero"/><path fill="#a5b77f" d="M 117.414062 107.792969 L 117.375 107.527344 C 117.324219 107.160156 117.242188 106.804688 117.132812 106.453125 C 117.015625 106.105469 116.875 105.765625 116.707031 105.4375 C 116.371094 104.785156 115.9375 104.199219 115.40625 103.6875 C 114.882812 103.179688 114.285156 102.78125 113.613281 102.488281 C 114.195312 102.894531 114.722656 103.359375 115.195312 103.886719 L 115.535156 104.28125 L 115.847656 104.703125 C 115.945312 104.847656 116.042969 104.988281 116.128906 105.140625 L 116.257812 105.367188 L 116.371094 105.59375 C 116.699219 106.214844 116.9375 106.867188 117.089844 107.554688 L 117.148438 107.808594 L 117.191406 108.0625 C 117.21875 108.234375 117.238281 108.410156 117.246094 108.582031 C 117.289062 108.941406 117.21875 109.273438 117.035156 109.585938 C 117.304688 109.332031 117.402344 108.949219 117.429688 108.582031 C 117.441406 108.402344 117.441406 108.21875 117.429688 108.035156 C 117.429688 107.976562 117.414062 107.894531 117.414062 107.792969 Z M 117.414062 107.792969 " fill-opacity="1" fill-rule="nonzero"/><path fill="#a5b77f" d="M 111.71875 98.808594 C 111.730469 98.046875 111.789062 97.269531 111.800781 96.496094 C 111.800781 96.101562 111.800781 95.71875 111.789062 95.324219 C 111.773438 94.929688 111.71875 94.546875 111.648438 94.152344 C 111.515625 93.386719 111.339844 92.628906 111.109375 91.882812 C 111.179688 92.65625 111.292969 93.417969 111.363281 94.179688 C 111.4375 94.945312 111.460938 95.714844 111.433594 96.480469 C 111.421875 97.242188 111.378906 98.03125 111.421875 98.808594 C 111.441406 99.597656 111.601562 100.359375 111.902344 101.09375 C 111.75 100.339844 111.691406 99.578125 111.71875 98.808594 Z M 111.71875 98.808594 " fill-opacity="1" fill-rule="nonzero"/><path fill="#537033" d="M 31.347656 99.289062 L 30.996094 99.261719 C 29.976562 99.78125 28.777344 99.597656 27.644531 99.695312 C 26.5625 99.808594 25.570312 100.175781 24.671875 100.789062 C 23.773438 101.40625 23.078125 102.199219 22.582031 103.167969 C 22.074219 104.195312 21.863281 105.4375 22.355469 106.46875 C 22.414062 106.582031 22.484375 106.707031 22.609375 106.722656 C 22.707031 106.730469 22.796875 106.710938 22.878906 106.664062 L 27.035156 104.859375 C 27.636719 104.621094 28.210938 104.335938 28.761719 104 C 29.546875 103.464844 30.164062 102.785156 30.621094 101.953125 C 31.078125 101.121094 31.320312 100.234375 31.347656 99.289062 Z M 31.347656 99.289062 " fill-opacity="1" fill-rule="nonzero"/><path fill="#537033" d="M 28.777344 93.503906 C 29.15625 95.28125 30.019531 97.003906 31.421875 98.160156 L 31.675781 98.019531 C 31.828125 97.003906 32.101562 96.019531 32.496094 95.070312 C 32.75 94.449219 33.058594 93.84375 33.230469 93.195312 C 33.765625 91.148438 32.835938 88.960938 31.433594 87.367188 C 31.375 87.285156 31.292969 87.234375 31.195312 87.214844 C 31.132812 87.214844 31.078125 87.226562 31.023438 87.253906 C 29.921875 87.75 29.144531 88.808594 28.804688 89.949219 C 28.464844 91.09375 28.523438 92.332031 28.777344 93.503906 Z M 28.777344 93.503906 " fill-opacity="1" fill-rule="nonzero"/><g clip-path="url(#fbf02eecd7)"><path fill="#537033" d="M 7.695312 86.578125 C 7.664062 86.726562 7.675781 86.871094 7.722656 87.015625 C 8.261719 89.285156 9.941406 91.191406 11.976562 92.347656 C 14.015625 93.503906 15.9375 93.886719 18.074219 94.054688 C 18.007812 94.171875 18.003906 94.292969 18.054688 94.417969 C 18.105469 94.542969 18.199219 94.625 18.328125 94.660156 L 18.410156 94.6875 C 18.101562 94.613281 17.785156 94.578125 17.464844 94.578125 C 16.476562 94.546875 15.484375 94.507812 14.507812 94.648438 C 11.269531 95.113281 8.445312 97.679688 7.679688 100.855469 C 7.59375 101.191406 7.539062 101.574219 7.707031 101.898438 C 8.035156 102.519531 8.953125 102.449219 9.632812 102.277344 C 10.59375 102.054688 11.554688 101.8125 12.417969 101.332031 C 13.277344 100.855469 14.324219 99.824219 15.132812 98.921875 L 18.78125 94.871094 L 18.625 94.773438 L 18.554688 94.746094 C 20.632812 95.410156 22.710938 96.070312 24.773438 96.761719 L 24.265625 97.074219 C 23.359375 97.90625 21.933594 97.582031 20.703125 97.636719 C 20.332031 97.652344 19.96875 97.707031 19.613281 97.800781 C 19.257812 97.894531 18.914062 98.023438 18.582031 98.1875 C 18.253906 98.355469 17.945312 98.554688 17.660156 98.785156 C 17.371094 99.019531 17.113281 99.277344 16.882812 99.566406 C 16.652344 99.851562 16.453125 100.160156 16.289062 100.492188 C 16.125 100.820312 15.996094 101.164062 15.90625 101.519531 C 15.8125 101.875 15.761719 102.238281 15.746094 102.605469 C 15.734375 102.976562 15.757812 103.339844 15.824219 103.703125 C 17.40625 103.71875 18.933594 103.011719 20.179688 102.023438 C 21.421875 101.039062 22.414062 99.78125 23.402344 98.539062 L 24.789062 96.792969 C 27.121094 97.582031 29.453125 98.414062 31.746094 99.332031 C 33.597656 100.078125 35.40625 100.953125 37.203125 101.828125 L 36.949219 101.828125 C 34.796875 102.054688 32.910156 102.878906 31.277344 104.296875 C 30.359375 105.101562 29.582031 106.074219 29.199219 107.230469 C 28.804688 108.441406 28.847656 109.632812 29.328125 110.8125 C 31.066406 110.515625 32.59375 109.515625 33.949219 108.386719 C 34.628906 107.820312 35.308594 107.214844 35.746094 106.453125 C 35.980469 106.011719 36.175781 105.550781 36.328125 105.070312 L 37.429688 101.898438 C 39.75 103.027344 42.066406 104.15625 44.511719 104.988281 C 45.078125 105.183594 45.390625 104.308594 44.824219 104.113281 C 42.152344 103.195312 39.605469 101.925781 37.0625 100.683594 C 37.484375 97.398438 39.648438 94.617188 41.726562 92.039062 C 40.894531 92.222656 40.085938 91.671875 39.238281 91.613281 C 38.390625 91.558594 37.824219 91.855469 37.257812 92.292969 C 36.695312 92.730469 35.957031 93.632812 35.832031 94.535156 C 35.746094 95.085938 35.847656 95.648438 35.929688 96.199219 L 36.425781 99.246094 C 36.496094 99.695312 36.582031 100.175781 36.808594 100.570312 C 35.238281 99.808594 33.667969 99.0625 32.054688 98.414062 C 29.554688 97.410156 27.007812 96.507812 24.449219 95.664062 L 24.617188 95.621094 C 24.691406 94.832031 24.957031 94.054688 25.113281 93.277344 C 25.269531 92.503906 25.332031 91.722656 25.300781 90.933594 C 25.269531 90.144531 25.148438 89.367188 24.9375 88.609375 C 24.722656 87.847656 24.425781 87.121094 24.042969 86.429688 C 23.660156 85.738281 23.203125 85.101562 22.667969 84.519531 C 22.585938 84.414062 22.480469 84.339844 22.355469 84.292969 C 22.242188 84.269531 22.128906 84.277344 22.015625 84.320312 C 21.507812 84.492188 21.140625 84.957031 20.957031 85.464844 C 20.773438 85.972656 20.746094 86.523438 20.730469 87.058594 C 20.675781 88.496094 20.617188 89.976562 21.167969 91.304688 C 21.394531 91.816406 21.667969 92.300781 21.988281 92.757812 C 22.628906 93.722656 23.320312 94.652344 24.054688 95.550781 C 22.3125 94.972656 20.5625 94.421875 18.808594 93.855469 C 18.085938 91.21875 16.035156 89.175781 14.015625 87.324219 C 12.796875 86.199219 11.285156 85.011719 9.660156 85.335938 C 9.027344 85.480469 8.472656 85.765625 7.992188 86.199219 C 7.855469 86.296875 7.757812 86.421875 7.695312 86.578125 Z M 7.695312 86.578125 " fill-opacity="1" fill-rule="nonzero"/></g><path fill="#a5b77f" d="M 23.21875 105.085938 C 23.171875 105.175781 23.132812 105.269531 23.105469 105.367188 C 23.082031 105.46875 23.070312 105.574219 23.078125 105.679688 C 23.121094 105.269531 23.417969 104.972656 23.726562 104.746094 C 23.886719 104.632812 24.050781 104.53125 24.222656 104.4375 L 24.746094 104.140625 L 26.882812 103.039062 C 27.601562 102.667969 28.285156 102.234375 28.929688 101.742188 C 29.589844 101.246094 30.125 100.644531 30.542969 99.9375 C 30.019531 100.539062 29.425781 101.0625 28.761719 101.503906 C 28.101562 101.941406 27.417969 102.339844 26.710938 102.703125 C 26.003906 103.082031 25.285156 103.449219 24.605469 103.886719 C 24.253906 104.097656 23.925781 104.339844 23.613281 104.605469 C 23.457031 104.746094 23.328125 104.90625 23.21875 105.085938 Z M 23.21875 105.085938 " fill-opacity="1" fill-rule="nonzero"/><path fill="#a5b77f" d="M 22.242188 98.710938 C 21.523438 99.046875 20.789062 99.34375 20.066406 99.726562 C 19.707031 99.921875 19.363281 100.140625 19.035156 100.386719 C 18.710938 100.636719 18.410156 100.910156 18.128906 101.207031 C 17.5625 101.789062 17.117188 102.453125 16.785156 103.195312 C 17.230469 102.535156 17.746094 101.933594 18.328125 101.390625 C 18.90625 100.855469 19.539062 100.40625 20.234375 100.035156 C 20.929688 99.65625 21.664062 99.34375 22.371094 98.949219 C 23.078125 98.554688 23.757812 98.0625 24.210938 97.382812 C 23.644531 97.976562 22.949219 98.371094 22.242188 98.710938 Z M 22.242188 98.710938 " fill-opacity="1" fill-rule="nonzero"/><path fill="#a5b77f" d="M 13.066406 97.496094 C 12.277344 98 11.542969 98.574219 10.863281 99.21875 C 10.179688 99.859375 9.597656 100.582031 9.121094 101.390625 C 9.710938 100.679688 10.355469 100.027344 11.058594 99.429688 C 11.757812 98.839844 12.496094 98.300781 13.265625 97.808594 C 14.027344 97.300781 14.820312 96.847656 15.625 96.382812 C 16.433594 95.917969 17.238281 95.480469 18.042969 95.015625 C 17.175781 95.351562 16.328125 95.722656 15.5 96.128906 C 14.660156 96.535156 13.851562 96.992188 13.066406 97.496094 Z M 13.066406 97.496094 " fill-opacity="1" fill-rule="nonzero"/><path fill="#a5b77f" d="M 11.34375 88.75 C 12.078125 89.386719 12.828125 89.976562 13.605469 90.554688 C 14.382812 91.132812 15.160156 91.683594 15.980469 92.207031 C 16.800781 92.730469 17.605469 93.238281 18.46875 93.6875 L 16.136719 91.980469 L 13.816406 90.261719 L 11.527344 88.523438 L 9.222656 86.789062 C 9.898438 87.480469 10.605469 88.128906 11.34375 88.75 Z M 11.34375 88.75 " fill-opacity="1" fill-rule="nonzero"/><path fill="#a5b77f" d="M 22.867188 90.371094 C 22.882812 90.804688 22.929688 91.230469 23.007812 91.65625 C 23.089844 92.082031 23.203125 92.503906 23.347656 92.910156 C 23.628906 93.730469 24.03125 94.484375 24.5625 95.167969 C 24.164062 94.421875 23.847656 93.640625 23.613281 92.828125 C 23.390625 92.019531 23.261719 91.195312 23.234375 90.359375 C 23.21875 89.9375 23.207031 89.511719 23.175781 89.074219 C 23.152344 88.640625 23.082031 88.210938 22.964844 87.792969 C 22.722656 86.945312 22.3125 86.199219 21.875 85.464844 C 22.171875 86.269531 22.511719 87.042969 22.683594 87.863281 C 22.851562 88.679688 22.835938 89.511719 22.867188 90.371094 Z M 22.867188 90.371094 " fill-opacity="1" fill-rule="nonzero"/><path fill="#a5b77f" d="M 30.316406 90.332031 C 30.261719 91.078125 30.21875 91.839844 30.21875 92.585938 C 30.21875 93.351562 30.292969 94.109375 30.445312 94.859375 C 30.59375 95.613281 30.867188 96.316406 31.265625 96.976562 C 31.011719 96.269531 30.835938 95.546875 30.742188 94.800781 C 30.699219 94.433594 30.65625 94.070312 30.640625 93.703125 C 30.628906 93.335938 30.613281 92.953125 30.613281 92.585938 C 30.601562 91.839844 30.628906 91.09375 30.628906 90.34375 C 30.628906 89.597656 30.671875 88.847656 30.996094 88.171875 C 30.761719 88.480469 30.597656 88.824219 30.5 89.203125 C 30.40625 89.574219 30.347656 89.949219 30.316406 90.332031 Z M 30.316406 90.332031 " fill-opacity="1" fill-rule="nonzero"/><path fill="#a5b77f" d="M 38.660156 93.136719 L 38.476562 93.335938 C 38.230469 93.609375 38.007812 93.898438 37.8125 94.210938 C 37.621094 94.523438 37.457031 94.847656 37.316406 95.183594 C 37.03125 95.859375 36.859375 96.566406 36.808594 97.300781 C 36.753906 98.027344 36.835938 98.742188 37.046875 99.441406 C 36.984375 98.734375 37.003906 98.03125 37.105469 97.328125 C 37.132812 97.15625 37.175781 96.988281 37.1875 96.804688 C 37.203125 96.621094 37.257812 96.46875 37.316406 96.296875 C 37.371094 96.128906 37.402344 95.960938 37.472656 95.804688 L 37.554688 95.5625 L 37.65625 95.324219 C 37.921875 94.675781 38.273438 94.074219 38.703125 93.519531 L 38.859375 93.308594 L 39.027344 93.109375 C 39.136719 92.976562 39.253906 92.847656 39.378906 92.730469 C 39.628906 92.46875 39.929688 92.308594 40.285156 92.25 C 39.917969 92.207031 39.550781 92.375 39.253906 92.585938 C 39.105469 92.695312 38.960938 92.8125 38.828125 92.941406 Z M 38.660156 93.136719 " fill-opacity="1" fill-rule="nonzero"/><path fill="#a5b77f" d="M 35.421875 103.265625 C 34.828125 103.746094 34.191406 104.195312 33.582031 104.691406 C 33.285156 104.929688 32.976562 105.183594 32.691406 105.464844 C 32.410156 105.75 32.140625 106.015625 31.886719 106.328125 C 31.382812 106.921875 30.921875 107.546875 30.5 108.203125 C 31.050781 107.652344 31.5625 107.074219 32.113281 106.523438 C 32.648438 105.976562 33.21875 105.460938 33.824219 104.988281 C 34.417969 104.507812 35.039062 104.027344 35.621094 103.492188 C 36.210938 102.96875 36.691406 102.355469 37.0625 101.65625 C 36.578125 102.257812 36.03125 102.792969 35.421875 103.265625 Z M 35.421875 103.265625 " fill-opacity="1" fill-rule="nonzero"/><g clip-path="url(#dee46ad90b)"><path fill="#537033" d="M 55.328125 71.726562 C 54.398438 71.320312 53.472656 70.902344 52.558594 70.46875 C 53.886719 69.339844 55.214844 68.015625 55.527344 66.292969 C 55.699219 65.347656 55.527344 64.390625 55.289062 63.472656 C 54.9375 62.222656 54.507812 61 54 59.804688 C 53.152344 61.46875 51.808594 62.878906 51.3125 64.671875 C 51.015625 65.703125 51.03125 66.789062 51.046875 67.859375 C 51.046875 68.367188 51.058594 68.875 51.214844 69.355469 C 51.285156 69.574219 51.390625 69.777344 51.527344 69.960938 C 50.027344 69.226562 48.550781 68.457031 47.101562 67.648438 C 48.230469 66.703125 48.882812 65.277344 49.121094 63.824219 C 49.363281 62.371094 49.234375 60.863281 49.039062 59.394531 C 48.933594 58.597656 48.808594 57.796875 48.65625 56.996094 C 47.890625 58.21875 47.222656 59.488281 46.648438 60.804688 C 46.167969 61.933594 45.742188 63.105469 45.714844 64.332031 C 45.6875 65.558594 46.082031 66.800781 46.972656 67.589844 C 45.183594 66.585938 43.425781 65.507812 41.699219 64.359375 L 41.839844 64.023438 C 42.195312 63.078125 42.902344 62.328125 43.46875 61.511719 C 45.363281 58.734375 45.445312 54.824219 43.652344 51.976562 C 43.121094 52.777344 42.613281 53.585938 42.125 54.402344 C 41.65625 55.179688 41.203125 55.96875 40.992188 56.84375 C 40.855469 57.511719 40.789062 58.191406 40.792969 58.875 C 40.738281 60.664062 40.710938 62.542969 41.402344 64.179688 L 41.332031 64.121094 C 39.550781 62.921875 37.78125 61.710938 36.144531 60.339844 C 37.472656 58.957031 38.84375 57.449219 39.113281 55.558594 C 39.253906 54.570312 39.070312 53.570312 38.816406 52.609375 C 38.308594 50.636719 37.5625 48.757812 36.582031 46.96875 C 36.550781 48.578125 36.042969 50.140625 35.546875 51.664062 C 35.054688 53.1875 34.515625 54.753906 34.472656 56.363281 C 34.425781 57.476562 34.65625 58.53125 35.167969 59.523438 C 33.804688 58.328125 32.597656 56.992188 31.546875 55.515625 C 33.910156 51.085938 34.121094 45.542969 32.054688 40.960938 L 30.796875 43.949219 C 30.359375 44.992188 29.921875 46.050781 29.851562 47.179688 C 29.78125 48.308594 30.121094 49.550781 30.34375 50.71875 C 30.585938 51.914062 30.722656 53.117188 30.753906 54.332031 C 30.566406 54.023438 30.394531 53.703125 30.230469 53.371094 C 30.164062 53.207031 30.042969 53.132812 29.863281 53.148438 C 29.597656 52.425781 28.972656 51.792969 28.394531 51.242188 L 25.101562 48.125 C 23.503906 46.617188 21.648438 44.992188 19.445312 45.09375 L 22.273438 48.914062 C 22.628906 49.425781 23.027344 49.902344 23.472656 50.339844 C 24 50.796875 24.570312 51.191406 25.183594 51.523438 C 26.613281 52.355469 28.054688 53.175781 29.511719 53.992188 C 30.164062 55.246094 30.945312 56.410156 31.859375 57.492188 C 30.203125 56.84375 28.378906 56.871094 26.554688 57.109375 C 25.929688 57.207031 25.320312 57.371094 24.730469 57.605469 C 23.605469 58.027344 22.550781 58.582031 21.566406 59.269531 C 22.609375 59.902344 23.6875 60.550781 24.886719 60.804688 C 25.796875 60.964844 26.710938 61.035156 27.628906 61.019531 C 28.988281 60.960938 29.75 60.707031 31.082031 60.425781 C 31.71875 60.285156 32.59375 59.410156 32.945312 58.703125 C 34.207031 59.988281 35.558594 61.164062 37.003906 62.230469 C 35.5625 62.136719 34.15625 62.328125 32.792969 62.808594 C 31.011719 63.417969 29.371094 64.402344 27.828125 65.503906 C 29.117188 66.179688 30.515625 66.71875 31.972656 66.71875 C 33.089844 66.71875 34.191406 66.394531 35.25 66.011719 C 35.945312 65.757812 36.652344 65.476562 37.21875 64.996094 C 37.78125 64.515625 38.191406 63.8125 38.164062 63.078125 C 38.96875 63.65625 39.789062 64.21875 40.609375 64.769531 C 41.429688 65.320312 42.574219 66.066406 43.578125 66.6875 C 42.929688 66.582031 42.28125 66.617188 41.644531 66.785156 C 41.007812 66.953125 40.429688 67.246094 39.917969 67.664062 C 38.871094 68.535156 38.152344 69.90625 36.835938 70.273438 C 37.402344 71.003906 38.363281 71.371094 39.28125 71.414062 C 40.199219 71.457031 41.132812 71.21875 42.011719 70.90625 C 42.460938 70.769531 42.882812 70.574219 43.28125 70.328125 C 43.753906 70.003906 44.109375 69.582031 44.351562 69.066406 C 44.59375 68.546875 44.691406 68.003906 44.640625 67.4375 L 44.582031 67.324219 C 47.054688 68.800781 49.589844 70.148438 52.191406 71.371094 C 51.59375 71.234375 50.992188 71.183594 50.382812 71.21875 C 48.742188 71.359375 47.382812 72.515625 46.238281 73.683594 C 45.238281 74.707031 44.300781 75.785156 43.425781 76.914062 C 43.339844 77.027344 43.253906 77.15625 43.296875 77.296875 C 43.347656 77.386719 43.421875 77.449219 43.523438 77.480469 C 44.140625 77.757812 44.785156 77.890625 45.460938 77.882812 C 46.136719 77.871094 46.777344 77.71875 47.382812 77.421875 C 47.992188 77.128906 48.515625 76.691406 49.039062 76.265625 L 50.382812 75.167969 C 51.484375 74.265625 52.65625 73.21875 52.769531 71.808594 L 52.644531 71.613281 L 54.863281 72.597656 C 55.457031 72.796875 55.882812 71.964844 55.328125 71.726562 Z M 55.328125 71.726562 " fill-opacity="1" fill-rule="nonzero"/></g><path fill="#a5b77f" d="M 48.105469 75.097656 C 47.464844 75.523438 46.804688 75.917969 46.125 76.28125 C 45.433594 76.632812 44.753906 77.015625 43.976562 77.070312 C 44.375 77.113281 44.765625 77.078125 45.148438 76.957031 C 45.527344 76.839844 45.894531 76.699219 46.253906 76.535156 C 47.707031 75.890625 49.007812 75.015625 50.15625 73.910156 C 50.71875 73.367188 51.222656 72.777344 51.667969 72.132812 C 51.101562 72.683594 50.535156 73.207031 49.941406 73.699219 C 49.347656 74.191406 48.742188 74.660156 48.105469 75.097656 Z M 48.105469 75.097656 " fill-opacity="1" fill-rule="nonzero"/><path fill="#a5b77f" d="M 53.503906 65.785156 C 53.617188 65.109375 53.703125 64.433594 53.761719 63.742188 C 53.816406 63.054688 53.824219 62.367188 53.789062 61.679688 C 53.675781 62.359375 53.578125 63.035156 53.476562 63.699219 C 53.378906 64.359375 53.265625 65.039062 53.152344 65.703125 C 53.039062 66.363281 52.910156 67.042969 52.785156 67.703125 C 52.65625 68.367188 52.515625 69.042969 52.390625 69.707031 C 52.660156 69.074219 52.882812 68.425781 53.066406 67.761719 C 53.238281 67.125 53.378906 66.464844 53.503906 65.785156 Z M 53.503906 65.785156 " fill-opacity="1" fill-rule="nonzero"/><path fill="#a5b77f" d="M 47.328125 65.234375 C 47.46875 64.6875 47.667969 64.164062 47.863281 63.613281 C 47.960938 63.332031 48.03125 63.046875 48.078125 62.753906 C 48.113281 62.460938 48.128906 62.171875 48.132812 61.878906 C 48.148438 61.300781 48.148438 60.722656 48.105469 60.144531 C 47.992188 60.707031 47.90625 61.285156 47.851562 61.851562 C 47.808594 62.414062 47.699219 62.964844 47.523438 63.5 C 47.441406 63.769531 47.339844 64.035156 47.257812 64.320312 C 47.175781 64.597656 47.109375 64.878906 47.058594 65.164062 C 46.957031 65.738281 46.925781 66.320312 46.972656 66.902344 C 47.058594 66.335938 47.183594 65.773438 47.328125 65.234375 Z M 47.328125 65.234375 " fill-opacity="1" fill-rule="nonzero"/><path fill="#a5b77f" d="M 42.207031 69.085938 C 42.019531 69.210938 41.820312 69.300781 41.601562 69.355469 L 40.214844 69.75 L 38.800781 70.128906 C 39.292969 70.144531 39.785156 70.113281 40.269531 70.03125 C 40.761719 69.957031 41.242188 69.851562 41.714844 69.707031 C 41.96875 69.636719 42.207031 69.523438 42.421875 69.367188 C 42.613281 69.210938 42.792969 69.035156 42.957031 68.847656 C 43.292969 68.488281 43.59375 68.101562 43.863281 67.691406 L 42.746094 68.648438 C 42.574219 68.804688 42.394531 68.949219 42.207031 69.085938 Z M 42.207031 69.085938 " fill-opacity="1" fill-rule="nonzero"/><path fill="#a5b77f" d="M 35.886719 63.824219 C 34.675781 64.523438 33.378906 64.996094 32 65.234375 C 31.308594 65.351562 30.609375 65.414062 29.90625 65.417969 C 30.613281 65.558594 31.324219 65.589844 32.042969 65.519531 C 33.5 65.375 34.835938 64.890625 36.042969 64.066406 C 36.636719 63.664062 37.160156 63.183594 37.613281 62.625 C 37.070312 63.070312 36.496094 63.46875 35.886719 63.824219 Z M 35.886719 63.824219 " fill-opacity="1" fill-rule="nonzero"/><path fill="#a5b77f" d="M 36.609375 54.996094 C 36.523438 55.785156 36.410156 56.574219 36.296875 57.378906 C 36.183594 58.183594 36.070312 58.972656 36 59.777344 C 36.226562 59 36.425781 58.226562 36.582031 57.433594 C 36.738281 56.644531 36.878906 55.855469 36.976562 55.050781 C 37.070312 54.246094 37.105469 53.4375 37.089844 52.625 C 37.078125 51.8125 36.984375 51.007812 36.808594 50.210938 C 36.835938 51.015625 36.835938 51.820312 36.792969 52.609375 C 36.75 53.402344 36.695312 54.203125 36.609375 54.996094 Z M 36.609375 54.996094 " fill-opacity="1" fill-rule="nonzero"/><path fill="#a5b77f" d="M 30.53125 58.578125 C 29.886719 58.652344 29.242188 58.699219 28.59375 58.71875 C 27.941406 58.746094 27.292969 58.734375 26.640625 58.734375 C 25.992188 58.734375 25.324219 58.71875 24.675781 58.734375 C 25.320312 58.863281 25.972656 58.957031 26.625 59.015625 C 27.285156 59.078125 27.945312 59.101562 28.605469 59.085938 C 29.273438 59.070312 29.933594 58.992188 30.585938 58.859375 C 31.238281 58.730469 31.859375 58.511719 32.453125 58.210938 C 31.820312 58.371094 31.179688 58.496094 30.53125 58.578125 Z M 30.53125 58.578125 " fill-opacity="1" fill-rule="nonzero"/><path fill="#a5b77f" d="M 28.039062 52.539062 C 27.714844 52.171875 27.371094 51.816406 27.007812 51.484375 C 26.65625 51.144531 26.289062 50.820312 25.917969 50.496094 C 25.550781 50.171875 25.199219 49.847656 24.84375 49.523438 C 24.492188 49.195312 24.167969 48.832031 23.855469 48.449219 C 24.054688 48.90625 24.3125 49.324219 24.632812 49.703125 C 24.949219 50.085938 25.292969 50.4375 25.664062 50.761719 C 26.03125 51.082031 26.414062 51.394531 26.8125 51.695312 C 27.207031 51.996094 27.617188 52.277344 28.039062 52.539062 Z M 28.039062 52.539062 " fill-opacity="1" fill-rule="nonzero"/><path fill="#a5b77f" d="M 31.265625 49.351562 C 31.277344 50.3125 31.308594 51.269531 31.277344 52.214844 C 31.253906 53.171875 31.160156 54.121094 30.996094 55.066406 C 31.304688 54.144531 31.492188 53.199219 31.5625 52.230469 C 31.632812 51.265625 31.65625 50.304688 31.632812 49.339844 C 31.617188 48.378906 31.574219 47.417969 31.574219 46.460938 C 31.566406 45.503906 31.605469 44.550781 31.703125 43.597656 C 31.457031 44.535156 31.316406 45.492188 31.277344 46.460938 C 31.234375 47.433594 31.25 48.394531 31.265625 49.351562 Z M 31.265625 49.351562 " fill-opacity="1" fill-rule="nonzero"/><path fill="#a5b77f" d="M 41.769531 63.164062 C 41.882812 62.5 41.980469 61.835938 42.09375 61.1875 C 42.207031 60.539062 42.335938 59.890625 42.476562 59.242188 C 42.617188 58.59375 42.773438 57.957031 42.945312 57.308594 C 43.113281 56.660156 43.296875 56.023438 43.480469 55.375 C 43.164062 55.96875 42.894531 56.585938 42.675781 57.222656 C 42.222656 58.496094 41.9375 59.800781 41.8125 61.144531 C 41.746094 61.816406 41.730469 62.488281 41.769531 63.164062 Z M 41.769531 63.164062 " fill-opacity="1" fill-rule="nonzero"/><path fill="#537033" d="M 99.035156 68.734375 C 99.09375 68.65625 99.132812 68.570312 99.148438 68.472656 C 99.164062 68.375 99.15625 68.28125 99.125 68.1875 C 99.09375 68.09375 99.042969 68.011719 98.972656 67.945312 C 98.902344 67.875 98.820312 67.828125 98.722656 67.804688 L 99.046875 66.800781 C 99.867188 65.195312 100.6875 63.570312 101.070312 61.808594 C 101.453125 60.042969 101.355469 58.113281 100.40625 56.589844 C 99.457031 55.066406 97.945312 54.191406 96.433594 53.34375 C 95.851562 54.785156 94.582031 55.839844 93.917969 57.25 C 93.011719 59.171875 93.378906 61.496094 94.398438 63.375 C 95.414062 65.25 96.855469 66.5625 98.382812 67.886719 L 98.269531 67.988281 C 96.816406 69.804688 95.667969 71.835938 94.652344 73.9375 C 94.105469 72.238281 93.535156 70.539062 92.941406 68.847656 C 92.75 68.246094 92.492188 67.671875 92.175781 67.125 C 91.128906 65.433594 89.011719 64.613281 87.015625 64.6875 C 86.734375 64.699219 86.4375 64.726562 86.222656 64.898438 C 86.011719 65.066406 85.84375 65.6875 85.871094 66.125 C 85.890625 66.828125 85.933594 67.539062 86 68.253906 C 86.125 69.847656 86.410156 71.570312 87.554688 72.699219 C 88.472656 73.585938 89.789062 73.9375 91.03125 74.25 L 94.15625 75.027344 C 93.335938 76.804688 92.617188 78.636719 91.867188 80.429688 C 91.480469 81.359375 91.101562 82.300781 90.734375 83.25 C 90.832031 82.066406 90.777344 80.867188 90.3125 79.777344 C 89.675781 78.285156 88.304688 77.167969 86.777344 76.621094 C 85.25 76.070312 83.566406 76.011719 81.953125 76.253906 C 82.28125 78.523438 83.269531 80.851562 85.234375 82.066406 C 85.8125 82.417969 86.4375 82.671875 87.058594 82.9375 C 88.164062 83.441406 89.207031 84.050781 90.183594 84.773438 C 89.050781 87.933594 88.160156 91.175781 87.78125 94.535156 C 87.695312 95.210938 88.769531 95.210938 88.855469 94.535156 C 89.390625 89.863281 90.976562 85.40625 92.769531 81.078125 C 94.566406 76.746094 96.164062 72.34375 99.035156 68.734375 Z M 99.035156 68.734375 " fill-opacity="1" fill-rule="nonzero"/><path fill="#537033" d="M 112.722656 61.425781 C 112.734375 61.21875 112.675781 61.03125 112.554688 60.863281 C 112.433594 60.691406 112.273438 60.582031 112.070312 60.523438 C 111.28125 60.15625 110.460938 59.789062 109.582031 59.761719 C 108.707031 59.734375 107.460938 60.214844 106.628906 60.890625 C 105.792969 61.566406 105.128906 62.441406 104.476562 63.289062 C 103.417969 64.6875 102.34375 66.082031 100.984375 67.183594 C 100.25 67.773438 99.417969 68.3125 99.035156 69.171875 L 99.234375 69.058594 C 101.300781 69.460938 103.363281 69.429688 105.421875 68.96875 C 107.480469 68.507812 109.355469 67.652344 111.054688 66.40625 C 111.5625 66.027344 112.042969 65.617188 112.367188 65.066406 C 112.992188 64.007812 112.863281 62.667969 112.722656 61.425781 Z M 112.722656 61.425781 " fill-opacity="1" fill-rule="nonzero"/><path fill="#537033" d="M 106.855469 73.601562 C 105.777344 72.882812 104.421875 72.667969 103.136719 72.753906 C 101.847656 72.839844 100.589844 73.207031 99.347656 73.558594 L 95.996094 74.53125 C 95.78125 74.589844 95.527344 74.871094 95.726562 74.984375 L 95.78125 75.222656 C 97.71875 76.507812 99.726562 77.71875 101.949219 78.425781 C 104.167969 79.128906 106.628906 79.269531 108.789062 78.425781 C 109.050781 78.34375 109.273438 78.203125 109.457031 78 C 109.894531 77.453125 109.484375 76.648438 109.085938 76.070312 C 108.4375 75.152344 107.773438 74.222656 106.855469 73.601562 Z M 106.855469 73.601562 " fill-opacity="1" fill-rule="nonzero"/><path fill="#537033" d="M 99.359375 82.910156 C 97.875 82.742188 96.363281 82.671875 94.90625 82.996094 C 93.449219 83.320312 92.050781 84.054688 91.144531 85.238281 L 91.074219 85.40625 C 95.257812 87.917969 100.730469 88.160156 105.113281 86 C 104.097656 85 103.035156 83.953125 101.707031 83.433594 C 100.957031 83.136719 100.152344 83.007812 99.359375 82.910156 Z M 99.359375 82.910156 " fill-opacity="1" fill-rule="nonzero"/><path fill="#a5b77f" d="M 88.882812 81.953125 C 88.34375 81.289062 87.792969 80.652344 87.199219 80.03125 C 86.601562 79.414062 85.957031 78.851562 85.261719 78.339844 C 84.566406 77.828125 83.8125 77.421875 83 77.128906 C 83.71875 77.566406 84.402344 78.054688 85.050781 78.59375 C 85.691406 79.140625 86.304688 79.714844 86.890625 80.316406 C 87.484375 80.921875 88.046875 81.542969 88.628906 82.148438 C 89.207031 82.753906 89.828125 83.335938 90.210938 84.109375 C 90.097656 83.691406 89.914062 83.304688 89.660156 82.953125 C 89.40625 82.613281 89.136719 82.289062 88.882812 81.953125 Z M 88.882812 81.953125 " fill-opacity="1" fill-rule="nonzero"/><path fill="#a5b77f" d="M 96.984375 84.675781 C 96.164062 84.730469 95.34375 84.816406 94.523438 84.898438 C 93.703125 84.984375 92.898438 85.070312 92.0625 85.125 C 92.886719 85.230469 93.710938 85.261719 94.539062 85.222656 C 95.359375 85.195312 96.191406 85.140625 97 85.082031 C 97.804688 85.027344 98.625 84.984375 99.445312 85 C 100.265625 85.007812 101.082031 85.082031 101.890625 85.222656 C 101.109375 84.917969 100.296875 84.734375 99.457031 84.675781 C 98.632812 84.613281 97.808594 84.613281 96.984375 84.675781 Z M 96.984375 84.675781 " fill-opacity="1" fill-rule="nonzero"/><path fill="#a5b77f" d="M 94.113281 74.039062 C 93.605469 73.21875 93.324219 72.289062 92.699219 71.5 C 92.542969 71.304688 92.367188 71.125 92.175781 70.964844 L 91.597656 70.511719 C 91.203125 70.230469 90.792969 69.960938 90.394531 69.695312 C 89.589844 69.171875 88.796875 68.664062 88.132812 68 C 87.46875 67.335938 86.929688 66.535156 86.761719 65.574219 C 86.761719 65.816406 86.792969 66.058594 86.847656 66.292969 C 86.90625 66.53125 86.984375 66.761719 87.085938 66.984375 C 87.296875 67.433594 87.5625 67.84375 87.894531 68.210938 C 88.542969 68.960938 89.363281 69.511719 90.167969 70.046875 L 91.371094 70.835938 L 91.949219 71.257812 C 92.132812 71.402344 92.300781 71.558594 92.460938 71.726562 C 93.066406 72.386719 93.464844 73.320312 94.113281 74.039062 Z M 94.113281 74.039062 " fill-opacity="1" fill-rule="nonzero"/><path fill="#a5b77f" d="M 96.757812 64.8125 C 96.996094 65.34375 97.269531 65.859375 97.578125 66.351562 C 97.734375 66.601562 97.917969 66.832031 98.128906 67.042969 C 98.34375 67.246094 98.59375 67.394531 98.878906 67.480469 C 98.34375 67.226562 98.015625 66.746094 97.746094 66.25 C 97.488281 65.742188 97.257812 65.21875 97.054688 64.6875 C 96.65625 63.617188 96.382812 62.515625 96.234375 61.386719 C 96.15625 60.824219 96.113281 60.257812 96.109375 59.691406 C 96.109375 59.410156 96.109375 59.128906 96.121094 58.847656 L 96.121094 58.632812 C 96.136719 58.5625 96.136719 58.507812 96.148438 58.4375 C 96.164062 58.367188 96.191406 58.167969 96.234375 58.027344 C 96.375 57.476562 96.53125 56.925781 96.671875 56.363281 C 96.742188 56.078125 96.792969 55.792969 96.828125 55.503906 C 96.871094 55.210938 96.847656 54.921875 96.757812 54.640625 C 96.796875 54.929688 96.777344 55.210938 96.703125 55.488281 C 96.632812 55.769531 96.558594 56.039062 96.460938 56.308594 C 96.277344 56.855469 96.078125 57.394531 95.910156 57.941406 C 95.867188 58.085938 95.824219 58.226562 95.796875 58.378906 C 95.769531 58.535156 95.769531 58.535156 95.753906 58.605469 L 95.753906 58.832031 C 95.726562 59.128906 95.710938 59.410156 95.710938 59.707031 C 95.695312 61.488281 96.042969 63.195312 96.757812 64.828125 Z M 96.757812 64.8125 " fill-opacity="1" fill-rule="nonzero"/><path fill="#a5b77f" d="M 109.214844 63.359375 C 108.75 63.671875 108.253906 63.980469 107.773438 64.25 C 107.289062 64.53125 106.773438 64.742188 106.230469 64.882812 C 105.695312 65.039062 105.128906 65.121094 104.5625 65.277344 C 103.996094 65.4375 103.457031 65.652344 102.9375 65.925781 C 101.886719 66.480469 101.011719 67.230469 100.308594 68.183594 C 101.117188 67.375 102.039062 66.722656 103.078125 66.238281 C 103.589844 66 104.117188 65.8125 104.664062 65.671875 C 105.199219 65.53125 105.765625 65.449219 106.34375 65.292969 C 106.917969 65.136719 107.460938 64.90625 107.972656 64.601562 L 108.707031 64.136719 C 108.945312 63.980469 109.1875 63.8125 109.414062 63.628906 C 110.332031 62.921875 111.179688 62.160156 112.070312 61.425781 C 111.066406 62.019531 110.148438 62.726562 109.214844 63.359375 Z M 109.214844 63.359375 " fill-opacity="1" fill-rule="nonzero"/><path fill="#a5b77f" d="M 103.984375 76.042969 C 103.546875 75.859375 103.121094 75.644531 102.683594 75.433594 C 102.234375 75.214844 101.765625 75.046875 101.28125 74.925781 C 100.796875 74.816406 100.308594 74.757812 99.8125 74.742188 C 98.832031 74.730469 97.863281 74.8125 96.898438 74.996094 C 97.875 75.011719 98.835938 74.984375 99.785156 75.066406 C 100.257812 75.109375 100.722656 75.191406 101.183594 75.308594 C 101.640625 75.429688 102.078125 75.59375 102.5 75.800781 C 102.9375 76 103.375 76.222656 103.828125 76.394531 C 104.285156 76.566406 104.753906 76.71875 105.226562 76.84375 C 106.167969 77.09375 107.121094 77.28125 108.082031 77.410156 C 107.164062 77.097656 106.230469 76.832031 105.328125 76.519531 C 104.859375 76.378906 104.421875 76.222656 103.984375 76.042969 Z M 103.984375 76.042969 " fill-opacity="1" fill-rule="nonzero"/><path fill="#7d553c" d="M 53.449219 67.027344 C 53.191406 67.03125 52.9375 67.058594 52.6875 67.097656 C 49.191406 67.464844 45.332031 68.324219 43.28125 71.457031 C 41.644531 73.96875 41.460938 77.128906 41.304688 80.117188 C 41.078125 84.828125 41.105469 89.539062 41.261719 94.253906 C 41.359375 97.371094 41.375 100.570312 41.488281 103.6875 C 41.542969 105.28125 41.316406 111.277344 41.558594 112.730469 C 41.605469 113.15625 41.757812 113.542969 42.011719 113.886719 C 42.292969 114.242188 42.730469 114.4375 43.15625 114.59375 C 45.730469 115.550781 48.527344 115.410156 51.230469 115.480469 C 54.960938 115.566406 59.148438 116.101562 62.796875 115.113281 C 63.96875 114.804688 65.085938 114.128906 65.679688 113.082031 C 66.117188 112.308594 66.246094 111.390625 66.289062 110.503906 C 66.445312 107.582031 65.878906 104.675781 65.847656 101.757812 C 65.792969 95.632812 65.796875 89.511719 65.863281 83.390625 C 65.921875 78.539062 66.457031 72.910156 62.441406 69.441406 C 60.023438 67.367188 56.855469 67.140625 53.449219 67.027344 Z M 53.449219 67.027344 " fill-opacity="1" fill-rule="nonzero"/><path fill="#101010" d="M 53.71875 67.664062 C 52.757812 67.675781 51.796875 67.648438 50.863281 67.605469 C 49.929688 67.5625 48.8125 67.519531 47.792969 67.378906 C 47.703125 67.390625 47.628906 67.367188 47.570312 67.300781 C 47.507812 67.234375 47.488281 67.15625 47.511719 67.070312 C 47.453125 65.234375 47.421875 63.402344 47.410156 61.566406 C 47.410156 60.652344 47.371094 59.75 47.355469 58.832031 C 47.339844 58.167969 47.269531 57.492188 47.371094 56.828125 C 47.46875 56.164062 48.742188 56.277344 49.207031 55.671875 C 49.675781 55.066406 49.859375 54.304688 49.957031 53.597656 C 50.183594 52.03125 49.898438 50.4375 49.589844 48.902344 C 49.527344 48.6875 49.511719 48.472656 49.546875 48.253906 C 49.675781 47.714844 50.238281 47.785156 50.648438 47.886719 C 51.585938 48.082031 52.535156 48.15625 53.492188 48.109375 C 54.480469 48.070312 55.441406 47.785156 56.433594 47.828125 C 57.421875 47.871094 58.257812 48.40625 59.203125 48.648438 C 61.652344 49.277344 64.136719 49.703125 66.65625 49.929688 C 66.554688 50.417969 66.289062 50.789062 65.863281 51.046875 C 65.101562 51.511719 64.109375 51.285156 63.234375 51.144531 C 61.136719 50.792969 59.054688 50.863281 56.984375 51.355469 C 56.855469 51.371094 56.746094 51.429688 56.660156 51.523438 C 56.59375 51.644531 56.578125 51.773438 56.601562 51.90625 C 56.628906 52.414062 56.578125 52.910156 56.445312 53.402344 C 57.050781 54.101562 57.359375 54.917969 57.378906 55.839844 L 59.007812 56.054688 C 59.148438 56.054688 59.273438 56.097656 59.386719 56.179688 C 59.515625 56.292969 59.527344 56.488281 59.527344 56.660156 C 59.585938 60.035156 59.582031 63.40625 59.515625 66.773438 C 59.539062 66.878906 59.515625 66.972656 59.445312 67.054688 C 59.375 67.136719 59.285156 67.175781 59.175781 67.167969 C 57.371094 67.496094 55.550781 67.660156 53.71875 67.664062 Z M 53.71875 67.664062 " fill-opacity="1" fill-rule="nonzero"/><path fill="#e6e7e8" d="M 49.519531 56.011719 C 51.914062 56.34375 54.3125 56.371094 56.714844 56.09375 C 56.855469 56.082031 56.855469 55.855469 56.714844 55.871094 C 54.332031 56.148438 51.953125 56.125 49.574219 55.800781 C 49.433594 55.785156 49.378906 55.996094 49.519531 56.011719 Z M 49.519531 56.011719 " fill-opacity="1" fill-rule="nonzero"/><path fill="#e6e7e8" d="M 58.144531 69.820312 C 60.941406 71.246094 63.800781 73.796875 63.953125 77.15625 C 63.953125 77.296875 64.179688 77.296875 64.179688 77.15625 C 64.027344 73.726562 61.140625 71.105469 58.257812 69.636719 C 58.128906 69.566406 58.015625 69.765625 58.144531 69.835938 Z M 58.144531 69.820312 " fill-opacity="1" fill-rule="nonzero"/><path fill="#e6e7e8" d="M 64.195312 78.734375 C 64.246094 79.109375 64.261719 79.488281 64.238281 79.863281 C 64.222656 80.003906 64.449219 80.003906 64.464844 79.863281 C 64.488281 79.46875 64.476562 79.074219 64.421875 78.679688 C 64.40625 78.539062 64.179688 78.59375 64.210938 78.734375 Z M 64.195312 78.734375 " fill-opacity="1" fill-rule="nonzero"/><path fill="#e6e7e8" d="M 63.347656 113.011719 C 64.660156 112.746094 65.101562 111.417969 65.128906 110.234375 C 65.128906 110.160156 65.089844 110.121094 65.015625 110.121094 C 64.941406 110.121094 64.902344 110.160156 64.902344 110.234375 C 64.875 111.320312 64.507812 112.5625 63.289062 112.800781 C 63.148438 112.828125 63.207031 113.042969 63.347656 113.011719 Z M 63.347656 113.011719 " fill-opacity="1" fill-rule="nonzero"/><path fill="#7d553c" d="M 84.34375 94.945312 C 84.128906 95.011719 83.925781 95.113281 83.734375 95.238281 C 82.691406 95.960938 82.691406 97.382812 82.535156 98.511719 C 82.378906 99.792969 82.3125 101.074219 82.335938 102.363281 C 82.335938 104.832031 82.28125 107.003906 82.320312 109.472656 C 82.335938 110.628906 82.617188 111.914062 83.4375 112.730469 C 84.257812 113.550781 85.292969 113.648438 86.335938 113.773438 C 87.976562 113.988281 89.632812 114.183594 91.285156 114.269531 C 92.941406 114.351562 94.269531 114.296875 95.769531 114.269531 L 103.136719 114.085938 C 104.734375 114.042969 106.515625 113.929688 107.617188 112.773438 C 108.71875 111.617188 108.804688 109.191406 108.960938 107.46875 C 109.214844 104.789062 109.214844 102.054688 109.160156 99.359375 C 109.117188 97.890625 108.863281 95.324219 106.925781 95.226562 C 103.742188 95.054688 100.5625 94.902344 97.378906 94.972656 C 95.1875 95.027344 93.011719 95.027344 90.820312 94.929688 C 89.660156 94.871094 88.5 94.800781 87.339844 94.789062 C 86.421875 94.789062 85.277344 94.632812 84.34375 94.945312 Z M 84.34375 94.945312 " fill-opacity="1" fill-rule="nonzero"/><path fill="#101010" d="M 82.800781 94.324219 C 82.757812 94.03125 82.753906 93.742188 82.789062 93.449219 C 82.875 92.546875 82.929688 91.65625 82.929688 90.753906 C 82.945312 90.457031 82.972656 90.117188 83.171875 89.90625 C 83.320312 89.773438 83.496094 89.683594 83.695312 89.640625 C 85.417969 89.132812 87.199219 89.175781 88.980469 89.101562 C 92.320312 88.960938 95.769531 88.847656 99.148438 88.949219 C 100.886719 89.003906 102.625 89.117188 104.351562 89.316406 C 105.398438 89.441406 108.054688 89.355469 108.605469 90.484375 C 108.710938 90.742188 108.753906 91.011719 108.734375 91.289062 L 108.734375 93.492188 C 108.734375 93.984375 108.734375 94.507812 108.480469 94.941406 C 107.929688 95.917969 106.527344 96.042969 105.539062 96.199219 C 103.503906 96.539062 102.160156 96.453125 99.839844 96.496094 C 97.523438 96.539062 95.0625 96.566406 92.882812 96.453125 C 89.71875 96.269531 85.84375 96.324219 83.59375 95.480469 C 83.042969 95.28125 82.886719 94.773438 82.800781 94.324219 Z M 82.800781 94.324219 " fill-opacity="1" fill-rule="nonzero"/><path fill="#e6e7e8" d="M 84.894531 90.105469 C 91.953125 90.574219 99.015625 90.597656 106.074219 90.175781 C 106.21875 90.160156 106.21875 89.949219 106.074219 89.949219 C 99.015625 90.371094 91.953125 90.347656 84.894531 89.878906 C 84.753906 89.863281 84.753906 90.089844 84.894531 90.105469 Z M 84.894531 90.105469 " fill-opacity="1" fill-rule="nonzero"/><path fill="#101010" d="M 106.585938 91.121094 C 106.753906 92.191406 106.800781 93.269531 106.726562 94.351562 C 106.710938 94.632812 107.152344 94.632812 107.179688 94.351562 C 107.253906 93.226562 107.203125 92.105469 107.023438 90.992188 C 106.980469 90.710938 106.542969 90.839844 106.597656 91.105469 Z M 106.585938 91.121094 " fill-opacity="1" fill-rule="nonzero"/><path fill="#e6e7e8" d="M 106.894531 98.117188 C 108.113281 99.613281 107.757812 101.898438 107.746094 103.6875 L 107.703125 106.75 C 107.6875 107.695312 107.898438 109.035156 107.121094 109.742188 C 107.007812 109.839844 107.179688 109.996094 107.277344 109.894531 C 107.898438 109.332031 107.898438 108.511719 107.898438 107.722656 C 107.914062 106.382812 107.929688 105.027344 107.957031 103.6875 C 107.984375 101.8125 108.324219 99.527344 107.050781 97.960938 C 106.96875 97.847656 106.8125 98.003906 106.894531 98.117188 Z M 106.894531 98.117188 " fill-opacity="1" fill-rule="nonzero"/><path fill="#e6e7e8" d="M 106.261719 110.785156 L 106.386719 110.828125 C 106.445312 110.839844 106.488281 110.824219 106.515625 110.769531 L 106.613281 110.628906 C 106.699219 110.515625 106.5 110.402344 106.414062 110.515625 L 106.316406 110.65625 L 106.445312 110.601562 L 106.316406 110.558594 C 106.175781 110.515625 106.117188 110.726562 106.261719 110.769531 Z M 106.261719 110.785156 " fill-opacity="1" fill-rule="nonzero"/><path fill="#101010" d="M 78.191406 83.757812 C 77.8125 84.066406 76.03125 84.039062 75.648438 84.066406 C 74.601562 84.152344 73.554688 84.179688 72.507812 84.195312 C 70.472656 84.207031 68.453125 84.109375 66.429688 84.011719 C 66.246094 84.019531 66.074219 83.972656 65.921875 83.871094 C 65.722656 83.714844 65.707031 83.433594 65.707031 83.191406 L 65.609375 77.621094 C 65.578125 77.191406 65.613281 76.769531 65.722656 76.351562 C 65.847656 75.941406 66.144531 75.5625 66.570312 75.449219 C 66.996094 75.335938 67.09375 75.363281 67.164062 75.136719 C 67.234375 74.914062 67.164062 74.953125 67.191406 74.871094 C 67.222656 74.785156 67.449219 74.601562 67.617188 74.488281 C 68.253906 74.082031 68.308594 73.191406 68.296875 72.429688 C 68.265625 71.089844 68.183594 69.722656 68.195312 68.367188 C 68.210938 66.632812 68.523438 64.796875 70.160156 63.9375 C 71.277344 63.359375 72.960938 63.445312 74.007812 64.148438 C 75.367188 65.082031 75.152344 66.632812 75.167969 68.070312 C 75.179688 69.511719 75.210938 70.835938 75.308594 72.21875 C 75.316406 72.570312 75.382812 72.90625 75.507812 73.234375 C 75.804688 73.882812 76.539062 74.292969 76.695312 74.996094 C 76.703125 75.070312 76.726562 75.132812 76.765625 75.195312 C 76.824219 75.25 76.894531 75.285156 76.976562 75.292969 C 77.386719 75.390625 77.855469 75.519531 78.082031 75.871094 C 78.179688 76.050781 78.242188 76.246094 78.265625 76.449219 C 78.46875 77.710938 78.589844 78.980469 78.632812 80.257812 C 78.644531 80.894531 78.984375 83.363281 78.292969 83.671875 Z M 78.191406 83.757812 " fill-opacity="1" fill-rule="nonzero"/><path fill="#553b2e" d="M 71.503906 83.925781 C 70.261719 83.847656 69.015625 83.851562 67.773438 83.941406 C 67.492188 83.957031 67.210938 84 66.9375 84.066406 C 66.613281 84.152344 66.289062 84.277344 66.105469 84.546875 C 65.921875 84.816406 65.863281 85.492188 66.0625 85.789062 C 66.257812 86.085938 66.484375 86.113281 66.597656 86.339844 C 66.644531 86.453125 66.667969 86.570312 66.667969 86.691406 L 66.710938 87.253906 C 66.734375 87.414062 66.722656 87.566406 66.683594 87.722656 C 66.472656 88.355469 65.609375 88.847656 65.128906 89.257812 C 62.738281 91.347656 63.164062 95.113281 63.136719 97.949219 C 63.0625 103.773438 63.671875 109.601562 63.390625 115.410156 C 63.347656 116.285156 63.347656 117.316406 64.054688 117.851562 C 64.40625 118.121094 64.859375 118.203125 65.285156 118.261719 C 69.652344 118.921875 74.121094 118.851562 78.519531 118.386719 C 79 118.332031 79.507812 118.273438 79.902344 118.019531 C 80.835938 117.429688 80.90625 116.101562 80.824219 115.003906 C 80.386719 109.175781 80.710938 103.324219 80.835938 97.484375 C 80.878906 95.269531 80.9375 92.910156 79.917969 90.878906 C 79.238281 89.527344 77.203125 87.496094 78.082031 85.859375 C 78.167969 85.71875 78.246094 85.570312 78.320312 85.421875 C 79.226562 83.191406 72.550781 83.984375 71.503906 83.925781 Z M 71.503906 83.925781 " fill-opacity="1" fill-rule="nonzero"/><path fill="#31221b" d="M 66.570312 86 C 68.453125 85.632812 70.375 85.632812 72.28125 85.660156 C 73.160156 85.675781 74.023438 85.691406 74.898438 85.660156 C 75.773438 85.632812 76.707031 85.507812 77.597656 85.800781 C 77.742188 85.84375 77.796875 85.632812 77.65625 85.589844 C 76.863281 85.324219 76.085938 85.394531 75.265625 85.421875 C 74.445312 85.449219 73.273438 85.449219 72.28125 85.4375 C 70.347656 85.40625 68.410156 85.40625 66.5 85.789062 C 66.359375 85.816406 66.414062 86.027344 66.554688 86 Z M 66.570312 86 " fill-opacity="1" fill-rule="nonzero"/><path fill="#31221b" d="M 66.371094 88.511719 C 67.886719 89.570312 69.9375 89.429688 71.703125 89.414062 C 73.839844 89.398438 75.988281 89.1875 77.96875 88.328125 C 78.09375 88.269531 77.980469 88.074219 77.855469 88.128906 C 75.917969 88.976562 73.796875 89.175781 71.703125 89.1875 C 69.976562 89.203125 67.96875 89.355469 66.484375 88.3125 C 66.371094 88.230469 66.257812 88.425781 66.371094 88.511719 Z M 66.371094 88.511719 " fill-opacity="1" fill-rule="nonzero"/><path fill="#31221b" d="M 69.566406 89.640625 C 69.597656 95.648438 69.609375 101.65625 69.527344 107.667969 C 69.511719 108.878906 69.527344 110.078125 70.21875 111.125 C 70.515625 111.574219 70.742188 111.800781 70.65625 112.433594 C 70.613281 112.757812 70.402344 113.027344 70.304688 113.335938 C 70.203125 113.648438 70.148438 114.015625 70.304688 114.339844 C 70.683594 115.113281 72 114.960938 72.679688 114.804688 C 72.988281 114.734375 73.511719 114.621094 73.726562 114.351562 C 73.9375 114.085938 73.753906 113.804688 73.554688 113.492188 C 73.128906 112.820312 73.039062 112.105469 73.285156 111.347656 C 73.46875 110.785156 73.921875 110.363281 74.09375 109.796875 C 74.15625 109.527344 74.183594 109.253906 74.175781 108.980469 C 74.191406 108.003906 74.191406 107.019531 74.207031 106.042969 C 74.21875 102.941406 74.21875 99.851562 74.21875 96.75 C 74.21875 94.421875 74.164062 92.078125 74.234375 89.738281 C 74.234375 89.597656 74.023438 89.597656 74.007812 89.738281 C 73.851562 94.449219 73.992188 99.1875 73.992188 103.902344 C 73.992188 105.125 73.988281 106.339844 73.980469 107.554688 C 73.980469 108.160156 74.023438 108.808594 73.953125 109.417969 C 73.839844 110.390625 72.988281 111.023438 72.960938 112.039062 C 72.949219 112.453125 73.023438 112.847656 73.1875 113.226562 C 73.316406 113.519531 73.769531 113.945312 73.457031 114.296875 C 73.144531 114.648438 72.480469 114.621094 72.199219 114.664062 C 71.351562 114.75 70.234375 114.605469 70.515625 113.492188 C 70.644531 112.984375 71.011719 112.535156 70.925781 111.96875 C 70.839844 111.40625 70.53125 111.195312 70.316406 110.828125 C 69.894531 110.121094 69.792969 109.316406 69.78125 108.511719 C 69.722656 105.382812 69.824219 102.25 69.808594 99.117188 C 69.792969 95.988281 69.851562 92.800781 69.824219 89.640625 C 69.824219 89.5625 69.785156 89.527344 69.710938 89.527344 C 69.632812 89.527344 69.597656 89.5625 69.597656 89.640625 Z M 69.566406 89.640625 " fill-opacity="1" fill-rule="nonzero"/><path fill="#e6e7e8" d="M 67.757812 75.28125 C 69.058594 75.097656 70.375 75.207031 71.675781 75.207031 C 72.976562 75.207031 74.390625 74.84375 75.71875 75.25 C 75.859375 75.292969 75.917969 75.082031 75.773438 75.039062 C 74.417969 74.628906 73.046875 74.984375 71.660156 74.996094 C 70.273438 75.011719 69.003906 74.898438 67.6875 75.066406 C 67.546875 75.082031 67.601562 75.308594 67.746094 75.28125 Z M 67.757812 75.28125 " fill-opacity="1" fill-rule="nonzero"/><path fill="#e6e7e8" d="M 77.671875 89.722656 C 78.828125 90.839844 79.453125 92.476562 79.707031 94.039062 C 79.734375 94.179688 79.945312 94.125 79.917969 93.984375 C 79.664062 92.375 79.011719 90.726562 77.824219 89.570312 C 77.726562 89.46875 77.570312 89.625 77.671875 89.722656 Z M 77.671875 89.722656 " fill-opacity="1" fill-rule="nonzero"/><path fill="#e6e7e8" d="M 77.105469 87.945312 C 76.964844 87.722656 77.003906 87.324219 76.992188 87.070312 L 76.949219 86.210938 C 76.933594 86.070312 76.722656 86.070312 76.722656 86.210938 L 76.777344 87.339844 C 76.792969 87.578125 76.765625 87.847656 76.90625 88.058594 C 77.046875 88.269531 77.175781 88.074219 77.105469 87.945312 Z M 77.105469 87.945312 " fill-opacity="1" fill-rule="nonzero"/><path fill="#e6e7e8" d="M 77.359375 85.308594 C 77.496094 85.238281 77.59375 85.128906 77.652344 84.984375 C 77.707031 84.839844 77.710938 84.691406 77.65625 84.546875 C 77.597656 84.421875 77.386719 84.476562 77.445312 84.605469 C 77.488281 84.703125 77.492188 84.804688 77.453125 84.90625 C 77.414062 85.007812 77.34375 85.082031 77.246094 85.125 C 77.117188 85.183594 77.230469 85.378906 77.359375 85.324219 Z M 77.359375 85.308594 " fill-opacity="1" fill-rule="nonzero"/><path fill="#e6e7e8" d="M 72.59375 112.675781 C 72.464844 111.933594 72.578125 111.234375 72.933594 110.574219 C 73.132812 110.191406 73.285156 109.855469 73.300781 109.417969 C 73.300781 109.273438 73.089844 109.273438 73.074219 109.417969 C 73.046875 110.09375 72.566406 110.644531 72.394531 111.277344 C 72.28125 111.761719 72.269531 112.246094 72.367188 112.730469 C 72.394531 112.871094 72.609375 112.816406 72.578125 112.675781 Z M 72.59375 112.675781 " fill-opacity="1" fill-rule="nonzero"/><path fill="#31221b" d="M 69.765625 88.441406 L 69.765625 86.128906 C 69.765625 86.050781 69.726562 86.015625 69.652344 86.015625 C 69.578125 86.015625 69.539062 86.050781 69.539062 86.128906 L 69.539062 88.441406 C 69.539062 88.515625 69.578125 88.554688 69.652344 88.554688 C 69.726562 88.554688 69.765625 88.515625 69.765625 88.441406 Z M 69.765625 88.441406 " fill-opacity="1" fill-rule="nonzero"/><path fill="#31221b" d="M 74.175781 88.636719 C 74.191406 87.75 74.121094 86.875 74.136719 85.984375 C 74.136719 85.910156 74.097656 85.875 74.023438 85.875 C 73.945312 85.875 73.910156 85.910156 73.910156 85.984375 C 73.894531 86.875 73.964844 87.75 73.953125 88.636719 C 73.953125 88.714844 73.988281 88.75 74.066406 88.75 C 74.140625 88.75 74.175781 88.714844 74.175781 88.636719 Z M 74.175781 88.636719 " fill-opacity="1" fill-rule="nonzero"/><path fill="#31221b" d="M 69.808594 84.96875 L 69.808594 84.125 C 69.808594 84.046875 69.769531 84.011719 69.695312 84.011719 C 69.621094 84.011719 69.582031 84.046875 69.582031 84.125 L 69.582031 84.96875 C 69.582031 85.046875 69.621094 85.082031 69.695312 85.082031 C 69.769531 85.082031 69.808594 85.046875 69.808594 84.96875 Z M 69.808594 84.96875 " fill-opacity="1" fill-rule="nonzero"/><path fill="#31221b" d="M 74.078125 85.054688 C 74.035156 84.71875 74.019531 84.378906 74.035156 84.039062 C 74.035156 83.898438 73.824219 83.898438 73.808594 84.039062 C 73.792969 84.398438 73.808594 84.753906 73.851562 85.113281 C 73.867188 85.253906 74.09375 85.195312 74.066406 85.054688 Z M 74.078125 85.054688 " fill-opacity="1" fill-rule="nonzero"/><path fill="#e6e7e8" d="M 76.792969 76.691406 C 77.359375 77.578125 77.445312 78.59375 77.457031 79.625 C 77.472656 80.652344 77.457031 81.753906 77.472656 82.8125 C 77.472656 82.886719 77.511719 82.925781 77.585938 82.925781 C 77.660156 82.925781 77.699219 82.886719 77.699219 82.8125 C 77.699219 81.597656 77.726562 80.386719 77.683594 79.171875 C 77.65625 78.242188 77.515625 77.367188 77.003906 76.578125 C 76.933594 76.464844 76.738281 76.5625 76.808594 76.691406 Z M 76.792969 76.691406 " fill-opacity="1" fill-rule="nonzero"/><path fill="#e6e7e8" d="M 73.246094 65.039062 C 74.078125 65.558594 74.148438 66.503906 74.136719 67.394531 C 74.136719 67.46875 74.171875 67.507812 74.25 67.507812 C 74.324219 67.507812 74.363281 67.46875 74.363281 67.394531 C 74.375 66.40625 74.261719 65.417969 73.359375 64.839844 C 73.230469 64.769531 73.132812 64.953125 73.246094 65.039062 Z M 73.246094 65.039062 " fill-opacity="1" fill-rule="nonzero"/><path fill="#caad8f" d="M 45.023438 117.683594 C 42.546875 119.148438 39.492188 119.148438 36.625 119.09375 C 33.5 119.050781 30.316406 118.996094 27.320312 118.078125 C 26.457031 117.824219 25.496094 117.34375 25.367188 116.457031 C 25.339844 116.121094 25.386719 115.796875 25.511719 115.480469 C 26.34375 112.902344 28.5625 110.910156 31.109375 109.9375 C 33.652344 108.964844 36.480469 108.964844 39.15625 109.472656 C 40.210938 109.679688 41.25 109.945312 42.277344 110.261719 C 42.601562 110.347656 42.910156 110.472656 43.199219 110.644531 C 43.507812 110.863281 43.773438 111.121094 44.003906 111.417969 C 44.667969 112.210938 45.363281 113.011719 45.714844 113.988281 C 46.070312 114.960938 46.027344 116.144531 45.332031 116.921875 " fill-opacity="1" fill-rule="nonzero"/><path fill="#caad8f" d="M 98.003906 120.8125 C 96.417969 121.660156 94.46875 121.660156 92.617188 121.632812 C 90.761719 121.605469 88.570312 121.574219 86.648438 121.054688 C 86.097656 120.898438 85.476562 120.628906 85.40625 120.121094 C 85.382812 119.925781 85.414062 119.738281 85.488281 119.558594 C 86.027344 118.0625 87.453125 116.90625 89.082031 116.355469 C 90.707031 115.804688 92.53125 115.792969 94.242188 116.089844 C 94.921875 116.203125 95.585938 116.371094 96.25 116.539062 C 96.457031 116.585938 96.652344 116.65625 96.84375 116.75 C 97.035156 116.875 97.203125 117.027344 97.351562 117.203125 C 97.777344 117.652344 98.214844 118.132812 98.441406 118.683594 C 98.667969 119.234375 98.640625 119.925781 98.199219 120.375 " fill-opacity="1" fill-rule="nonzero"/><path fill="#dbc9a9" d="M 28.929688 119.347656 C 28.480469 120.152344 27.671875 120.699219 26.8125 120.996094 C 25.949219 121.292969 25.015625 121.390625 24.097656 121.449219 C 23.175781 121.503906 21.875 121.574219 20.800781 121.351562 C 19.726562 121.125 18.667969 120.601562 18.015625 119.714844 C 17.730469 119.351562 17.570312 118.945312 17.535156 118.488281 C 17.492188 117.542969 18.226562 116.738281 19.035156 116.242188 C 21.085938 114.972656 23.671875 114.972656 26.0625 115.285156 C 27.007812 115.410156 27.957031 115.582031 28.804688 116.019531 C 28.980469 116.09375 29.121094 116.214844 29.226562 116.371094 C 29.308594 116.535156 29.347656 116.710938 29.339844 116.890625 C 29.398438 117.640625 29.425781 118.457031 29.015625 119.078125 " fill-opacity="1" fill-rule="nonzero"/><g clip-path="url(#9562d94447)"><path fill="#dbc9a9" d="M 104.988281 121.054688 C 104.714844 121.671875 104.265625 122.121094 103.644531 122.394531 C 103.09375 122.648438 102.511719 122.703125 101.933594 122.761719 C 101.355469 122.816406 100.535156 122.859375 99.839844 122.675781 C 99.066406 122.480469 98.476562 122.039062 98.074219 121.351562 C 97.886719 121.046875 97.785156 120.71875 97.761719 120.363281 C 97.734375 119.601562 98.199219 118.9375 98.710938 118.542969 C 100.011719 117.511719 101.652344 117.511719 103.164062 117.765625 C 103.757812 117.867188 104.367188 118.007812 104.902344 118.359375 C 105.019531 118.429688 105.109375 118.523438 105.171875 118.640625 C 105.222656 118.777344 105.246094 118.917969 105.242188 119.066406 C 105.269531 119.671875 105.296875 120.335938 105.03125 120.84375 " fill-opacity="1" fill-rule="nonzero"/></g></svg>